<svg width="141" height="33" viewBox="0 0 141 33" fill="none" xmlns="http://www.w3.org/2000/svg">
<g clip-path="url(#clip0_1606_51526)">
<path fill-rule="evenodd" clip-rule="evenodd" d="M10.7474 13.8563C10.7721 14.713 11.0902 15.5341 11.6467 16.1776C12.2926 16.9244 12.8529 17.0389 14.3818 18.9326C15.8429 20.7411 15.7084 22.981 14.6214 24.1698C13.7863 25.0842 13.2726 25.276 11.8807 25.8653C10.8778 26.2884 10.3993 26.4802 9.6719 26.785C7.78083 27.5781 0.511719 30.6515 0.511719 30.6515C0.511719 30.6515 2.60316 30.1722 3.59462 30.0754C4.58608 29.9785 5.91716 29.7664 7.83342 29.8403C9.25265 29.8949 11.0441 30.2758 13.95 31.3474C17.2914 32.5772 21.0339 32.5369 22.5794 32.399C24.0816 32.2648 26.5308 31.9909 28.3674 31.411C29.8304 30.9491 30.934 30.6888 33.2932 30.9261C35.0873 31.1062 37.735 31.7694 40.1842 32.9607C40.2097 32.9725 40.2345 32.986 40.2583 33.001C40.2583 33.001 39.7361 32.4547 38.6535 31.7053C37.5709 30.9559 34.2399 29.1055 31.8944 28.121C29.3315 27.0442 28.7319 26.8551 28.0985 26.5744C27.5145 26.3159 27.183 25.4263 27.2812 24.5974C27.4219 23.4068 27.4974 22.7052 27.3871 21.6962C27.2656 20.587 26.8167 18.6613 25.8404 17.0242C25.0308 15.6678 24.0742 14.4557 22.7594 13.3145C22.4494 13.0451 21.9361 12.5986 21.9361 12.5986L25.9753 7.60214C25.9753 7.60214 28.0363 5.07359 28.4759 4.52462C29.1141 3.72774 30.1652 2.67239 30.88 2.21423C31.6099 1.74665 32.2873 1.33031 33.2662 1.02738C33.9618 0.814018 34.68 0.686258 35.4054 0.646837L35.4362 0.290406C35.4362 0.290406 31.4566 -0.498188 26.5012 0.523631C22.6901 1.30921 17.6717 3.10568 13.1937 8.35381C10.783 11.1796 10.7215 13.0986 10.7474 13.8548V13.8563Z" fill="#FF912C"/>
<path fill-rule="evenodd" clip-rule="evenodd" d="M4.58374 28.1166L11.838 24.9995C12.3193 24.7929 12.7873 24.5556 13.2391 24.2889C13.8361 23.9268 14.0758 23.5316 14.1072 23.4789C14.1443 23.4144 12.2184 23.3119 11.2977 23.4336C10.404 23.5516 8.9292 23.9235 7.75034 24.6363C6.48037 25.4057 5.76816 26.1811 5.3278 26.7576C4.92336 27.2851 4.65522 27.8446 4.58374 28.1166Z" fill="#066651"/>
<path d="M51.6567 4.26074V7.4528H42.712V13.1809H50.8356V16.3436H42.712V25.1447H39.281V4.26074H51.6567Z" fill="#066651"/>
<path d="M59.7891 25.2954C58.3425 25.2954 57.2868 24.8678 56.6221 24.0125C55.9575 23.1572 55.625 21.7649 55.6248 19.8356V4.26074H58.851V19.8043C58.851 20.5204 58.9047 21.0625 59.0121 21.4305C59.1195 21.7984 59.3101 22.0569 59.5839 22.2059C59.8578 22.3551 60.2586 22.4297 60.7865 22.4297C61.1693 22.4258 61.5513 22.396 61.9302 22.3404V25.0852C61.3228 25.2254 60.6091 25.2954 59.7891 25.2954Z" fill="#066651"/>
<path d="M74.9894 10.764H78.3619V10.9429L72.3205 26.2778C71.7736 27.65 71.2457 28.7038 70.7369 29.4393C70.228 30.1748 69.6464 30.6969 68.9921 31.0056C68.3373 31.314 67.5015 31.4682 66.4847 31.4682C65.6833 31.4682 64.862 31.2992 64.0211 30.9611L64.6959 28.3357C65.3018 28.5543 65.8589 28.6636 66.3673 28.6639C66.8364 28.6639 67.2177 28.5843 67.511 28.425C67.8043 28.2658 68.0732 27.9873 68.3176 27.5897C68.5621 27.1918 68.8406 26.6051 69.1532 25.8294L69.5347 24.8449L63.3174 10.9418V10.7628H66.7484L68.8895 15.774L71.0006 21.0843L73.0242 15.8037L74.9871 10.7617L74.9894 10.764Z" fill="#066651"/>
<path d="M91.9199 24.5479C90.6493 25.0462 89.4078 25.2954 88.1955 25.2954C86.6316 25.2954 85.4194 24.8231 84.5589 23.8783C83.6985 22.9336 83.2683 21.4867 83.2686 19.5375V13.4495L80.4238 13.2706V10.7646H83.2978L83.6204 6.43848H86.4944V10.7646H91.304V13.4793H86.4944V19.4761C86.4944 20.4708 86.6705 21.2118 87.0226 21.6991C87.3747 22.1864 87.971 22.43 88.8114 22.43C89.5981 22.4332 90.3769 22.2707 91.0988 21.9526L91.9199 24.5483V24.5479Z" fill="#066651"/>
<path d="M108.469 16.7615C108.469 17.4925 108.401 18.2217 108.264 18.9393H97.853C98.0486 20.1126 98.5671 21.0126 99.4085 21.6393C100.25 22.266 101.374 22.5792 102.781 22.579C104.443 22.579 105.929 22.2607 107.239 21.6242L107.884 24.19C106.887 24.6475 105.982 24.9657 105.17 25.1448C104.358 25.3239 103.473 25.4134 102.516 25.4134C100.932 25.4134 99.5441 25.1051 98.3515 24.4885C97.159 23.8718 96.2352 22.9967 95.5801 21.8631C94.9253 20.7292 94.5979 19.4265 94.5979 17.9548C94.5979 16.4831 94.9009 15.1803 95.5068 14.0465C96.0913 12.9348 96.9835 12.0219 98.073 11.4211C99.1774 10.8042 100.463 10.4958 101.929 10.4961C103.22 10.4961 104.358 10.7547 105.346 11.2719C106.333 11.7891 107.1 12.5249 107.648 13.4794C108.195 14.4339 108.469 15.5279 108.469 16.7615H108.469ZM101.958 13.2409C100.883 13.2409 99.9946 13.5244 99.2919 14.0913C98.5892 14.6582 98.1291 15.4792 97.9115 16.5543H105.652C105.652 15.4405 105.305 14.6102 104.611 14.0634C103.917 13.5166 103.032 13.243 101.957 13.2428L101.958 13.2409Z" fill="#066651"/>
<path d="M119.857 10.4956C120.446 10.4909 121.033 10.5661 121.602 10.7195C122.14 10.8687 122.711 11.1024 123.317 11.4206L122.144 14.2555C121.751 14.0131 121.327 13.8273 120.883 13.7035C120.443 13.5907 119.99 13.5356 119.536 13.5396C118.559 13.5396 117.737 13.8579 117.073 14.4944C116.408 15.1309 116.076 16.0358 116.076 17.2091V25.1444H112.85V15.15C112.85 14.5132 112.752 14.0757 112.557 13.8373C112.361 13.5989 112.019 13.4795 111.53 13.479C111.413 13.479 111.178 13.4989 110.827 13.5389V10.7643C111.472 10.6638 112.009 10.6136 112.439 10.6136C113.319 10.6136 114.023 10.7876 114.551 11.1358C115.078 11.4839 115.449 12.0558 115.665 12.8513C116.115 12.0756 116.706 11.4888 117.439 11.091C118.172 10.6931 118.979 10.4941 119.859 10.4941L119.857 10.4956Z" fill="#066651"/>
<path d="M135.028 10.4961C136.69 10.4961 138.019 11.043 139.016 12.137C140.014 13.2309 140.512 14.6828 140.512 16.4929V25.1448H137.286V16.7016C137.286 15.608 137.012 14.7775 136.465 14.2104C135.918 13.6432 135.116 13.3598 134.06 13.3604C132.907 13.3604 132.002 13.7482 131.348 14.5238C130.693 15.2995 130.365 16.3042 130.365 17.5381V25.1448H127.139V15.1504C127.139 14.5137 127.041 14.0761 126.846 13.8377C126.65 13.5994 126.308 13.4799 125.82 13.4794C125.702 13.4794 125.468 13.4994 125.116 13.5393V10.7647C125.761 10.6643 126.299 10.614 126.729 10.614C127.589 10.614 128.288 10.7881 128.826 11.1362C129.364 11.4844 129.74 12.047 129.954 12.8242C131.264 11.2731 132.956 10.4975 135.028 10.4972L135.028 10.4961Z" fill="#066651"/>
</g>
<defs>
<clipPath id="clip0_1606_51526">
<rect width="140" height="33" fill="white" transform="translate(0.511719)"/>
</clipPath>
</defs>
</svg>
