<svg width="20" height="21" viewBox="0 0 20 21" fill="none" xmlns="http://www.w3.org/2000/svg">
<g id="Outline / Map &#38; Location / ">
<path id="Vector" fill-rule="evenodd" clip-rule="evenodd" d="M9.99996 2.7915C9.42466 2.7915 8.95829 3.25787 8.95829 3.83317C8.95829 4.40847 9.42466 4.87484 9.99996 4.87484C10.5753 4.87484 11.0416 4.40847 11.0416 3.83317C11.0416 3.25787 10.5753 2.7915 9.99996 2.7915ZM7.70829 3.83317C7.70829 2.56752 8.73431 1.5415 9.99996 1.5415C11.2656 1.5415 12.2916 2.56752 12.2916 3.83317C12.2916 5.09882 11.2656 6.12484 9.99996 6.12484C8.73431 6.12484 7.70829 5.09882 7.70829 3.83317ZM14.1578 6.46968C15.3418 6.21597 16.4583 7.11856 16.4583 8.32944C16.4583 9.14811 15.9344 9.87493 15.1578 10.1338L13.345 10.7381C13.2308 10.7761 13.1625 10.799 13.1118 10.8182C13.0797 10.8303 13.0662 10.8368 13.0629 10.8385C12.9945 10.8816 12.9573 10.9605 12.9675 11.0408C12.9683 11.0444 12.9719 11.0589 12.9829 11.0913C13.0003 11.1427 13.0261 11.21 13.0693 11.3224L14.1083 14.0237C14.575 15.2373 13.6793 16.5415 12.3791 16.5415C11.7142 16.5415 11.1004 16.1853 10.7705 15.608L9.99996 14.2596L9.22942 15.608C8.89956 16.1853 8.28569 16.5415 7.62084 16.5415C6.32066 16.5415 5.42491 15.2373 5.89164 14.0237L6.93063 11.3224C6.97386 11.21 6.99963 11.1427 7.01705 11.0913C7.02807 11.0589 7.03165 11.0444 7.03247 11.0408C7.04263 10.9605 7.0054 10.8816 6.93699 10.8385C6.93372 10.8368 6.92024 10.8304 6.88816 10.8182C6.83746 10.799 6.76914 10.7761 6.65489 10.7381L4.84215 10.1338C4.06549 9.87493 3.54163 9.14811 3.54163 8.32944C3.54163 7.11856 4.65812 6.21597 5.84213 6.46969L7.42343 6.80854C7.51219 6.82756 7.55365 6.83644 7.59457 6.8449C9.18137 7.17313 10.8186 7.17313 12.4054 6.8449C12.4463 6.83644 12.4877 6.82755 12.5765 6.80854L14.1578 6.46968ZM15.2083 8.32944C15.2083 7.91437 14.8256 7.60497 14.4197 7.69194L12.8361 8.03128C12.7505 8.04963 12.7044 8.0595 12.6586 8.06899C10.9047 8.43176 9.0952 8.43176 7.34136 8.06899C7.29554 8.05951 7.24952 8.04965 7.16402 8.03133L5.58021 7.69194C5.17435 7.60497 4.79163 7.91437 4.79163 8.32944C4.79163 8.61007 4.9712 8.85922 5.23743 8.94796L7.05018 9.55221C7.06528 9.55725 7.08047 9.56228 7.09571 9.56733C7.26703 9.6241 7.44503 9.68309 7.59179 9.77368C8.0827 10.0767 8.34883 10.6406 8.27067 11.2122C8.2473 11.3831 8.17968 11.558 8.11459 11.7263C8.1088 11.7413 8.10303 11.7562 8.09732 11.7711L7.05833 14.4725C6.9065 14.8672 7.19789 15.2915 7.62084 15.2915C7.83712 15.2915 8.03681 15.1756 8.14412 14.9878L9.45731 12.6898C9.56858 12.495 9.77567 12.3748 9.99996 12.3748C10.2242 12.3748 10.4313 12.495 10.5426 12.6898L11.8558 14.9878C11.9631 15.1756 12.1628 15.2915 12.3791 15.2915C12.802 15.2915 13.0934 14.8672 12.9416 14.4725L11.9026 11.7711C11.8969 11.7562 11.8911 11.7413 11.8853 11.7263C11.8202 11.558 11.7526 11.3831 11.7292 11.2122C11.6511 10.6406 11.9172 10.0767 12.4081 9.77368C12.5549 9.68309 12.7329 9.6241 12.9042 9.56733C12.9195 9.56228 12.9346 9.55725 12.9497 9.55221L14.7625 8.94796C15.0287 8.85922 15.2083 8.61007 15.2083 8.32944ZM4.34695 12.3024C4.502 12.6108 4.37769 12.9865 4.0693 13.1416C2.80187 13.7788 2.29163 14.4956 2.29163 15.0832C2.29163 15.7196 2.89497 16.5039 4.36388 17.1649C5.77413 17.7995 7.76622 18.2082 9.99996 18.2082C12.2337 18.2082 14.2258 17.7995 15.636 17.1649C17.105 16.5039 17.7083 15.7196 17.7083 15.0832C17.7083 14.4956 17.198 13.7788 15.9306 13.1416C15.6222 12.9865 15.4979 12.6108 15.653 12.3024C15.808 11.994 16.1837 11.8697 16.4921 12.0248C17.8638 12.7144 18.9583 13.7499 18.9583 15.0832C18.9583 16.5178 17.6962 17.6086 16.149 18.3048C14.5432 19.0274 12.3686 19.4582 9.99996 19.4582C7.63132 19.4582 5.45675 19.0274 3.85092 18.3048C2.30376 17.6086 1.04163 16.5178 1.04163 15.0832C1.04163 13.7499 2.13612 12.7144 3.5078 12.0248C3.8162 11.8697 4.19189 11.994 4.34695 12.3024Z" fill="white"/>
</g>
</svg>
