<svg width="18" height="18" viewBox="0 0 18 18" fill="none" xmlns="http://www.w3.org/2000/svg">
<g id="airport-plane">
<path id="Vector" d="M8.83782 4.39543L9.73496 3.49829C9.97791 3.29269 10.2893 3.1859 10.6073 3.19912C10.9252 3.21234 11.2267 3.34458 11.4517 3.56963C11.6768 3.79468 11.809 4.0961 11.8222 4.41409C11.8354 4.73209 11.7287 5.04344 11.5231 5.28638L10.1 6.70944V8.54084L14.1588 7.57564C14.4717 7.5018 14.801 7.54953 15.0801 7.70918C15.3592 7.86883 15.5673 8.12848 15.6623 8.43566C15.7305 8.59758 15.7649 8.77176 15.7632 8.94746C15.7615 9.12316 15.7239 9.29665 15.6526 9.45724C15.5813 9.61783 15.4778 9.76211 15.3486 9.88117C15.2194 10.0002 15.0671 10.0916 14.9013 10.1495L10.1062 11.9129L10.1248 15.0993C10.1248 15.4406 9.98917 15.7679 9.74782 16.0093C9.50647 16.2506 9.17914 16.3862 8.83782 16.3862C8.49651 16.3862 8.16917 16.2506 7.92782 16.0093C7.68647 15.7679 7.55089 15.4406 7.55089 15.0993L7.56945 11.9129L2.74345 10.1186C2.58335 10.0582 2.43701 9.9663 2.31311 9.8483C2.18922 9.7303 2.09028 9.58861 2.02219 9.43165C1.9541 9.27469 1.91822 9.10564 1.91671 8.93455C1.91519 8.76346 1.94806 8.59381 2.01336 8.43566C2.10835 8.12848 2.31642 7.86883 2.59551 7.70918C2.87461 7.54953 3.20391 7.5018 3.51684 7.57564L7.57564 8.54084L7.57564 6.70944L6.15258 5.28638C5.94698 5.04344 5.8402 4.73209 5.85341 4.41409C5.86663 4.0961 5.99888 3.79468 6.22393 3.56963C6.44898 3.34458 6.75039 3.21233 7.06839 3.19912C7.38638 3.1859 7.69773 3.29269 7.94068 3.49829L8.83782 4.39543Z" stroke="#FF912C" stroke-width="0.875" stroke-linecap="round" stroke-linejoin="round"/>
</g>
</svg>
