<svg width="50" height="50" viewBox="0 0 50 50" fill="none" xmlns="http://www.w3.org/2000/svg">
<g id="Truck">
<g clipPath="url(#clip0_1574_98829)">
<g id="Group 36678">
<path id="&#239;&#163;&#191;Pay" d="M13.292 20.3695C12.3883 20.3695 11.6585 20.9134 11.1877 20.9134C10.694 20.9134 10.0331 20.3997 9.25052 20.3997C7.76243 20.3997 6.25 21.6308 6.25 23.9335C6.27876 25.342 6.71379 26.7127 7.50337 27.8827C8.08846 28.705 8.61267 29.3833 9.35739 29.3833C10.1021 29.3833 10.4207 28.8999 11.3399 28.8999C12.2592 28.8999 12.4797 29.3706 13.292 29.3706C14.1044 29.3706 14.6448 28.6384 15.1528 27.9136C15.5031 27.3911 15.7764 26.8215 15.9645 26.2221C15.4909 26.0194 15.0874 25.6832 14.8039 25.2551C14.5204 24.827 14.3694 24.3257 14.3695 23.8131C14.3736 23.3594 14.4937 22.9141 14.7185 22.5192C14.9433 22.1242 15.2655 21.7926 15.6547 21.5555C15.3906 21.1787 15.0364 20.873 14.624 20.666C14.2116 20.459 13.7539 20.3571 13.292 20.3695ZM12.874 19.3953C13.2633 18.9267 13.4827 18.3415 13.497 17.734C13.4976 17.6554 13.4899 17.577 13.474 17.5C12.795 17.565 12.1669 17.8865 11.7194 18.3982C11.3244 18.8451 11.0939 19.4122 11.066 20.0064C11.0665 20.0801 11.0742 20.1535 11.089 20.2256C11.1416 20.2354 11.1951 20.2403 11.2486 20.2404C11.5627 20.2146 11.8684 20.1265 12.1477 19.9814C12.4269 19.8362 12.6741 19.6369 12.8747 19.3953H12.874ZM18.944 18.3532V29.2489H20.9056V25.6775H23.2818C23.7756 25.7086 24.2706 25.6365 24.7347 25.4661C25.1989 25.2956 25.622 25.0304 25.9769 24.6876C26.3317 24.3449 26.6105 23.932 26.7952 23.4757C26.9799 23.0194 27.0665 22.5297 27.0493 22.0382C27.0775 21.5489 27.0017 21.0592 26.8269 20.601C26.652 20.1428 26.382 19.7263 26.0344 19.3788C25.6868 19.0312 25.2694 18.7603 24.8095 18.5837C24.3496 18.4071 23.8574 18.3288 23.365 18.3539L18.944 18.3532ZM20.9056 19.9842H22.8496C24.2626 19.9842 25.06 20.7016 25.06 22.0382C25.06 23.3371 24.2396 24.0619 22.8421 24.0619H20.9042L20.9056 19.9842ZM30.7195 27.9123C29.8841 27.9123 29.2835 27.4968 29.2835 26.8023C29.2835 26.13 29.7773 25.7528 30.8331 25.6849L32.7095 25.5639V26.2234C32.6941 26.4655 32.6299 26.7021 32.5208 26.919C32.4116 27.136 32.2597 27.329 32.0741 27.4865C31.8885 27.644 31.673 27.7629 31.4403 27.836C31.2076 27.9092 30.9625 27.9351 30.7195 27.9123ZM30.1649 29.3833C30.6516 29.4085 31.1362 29.3042 31.5689 29.0812C32.0015 28.8582 32.3665 28.5246 32.6263 28.1147H32.7555V29.2489H34.5709V23.6087C34.5709 21.8573 33.371 20.8226 31.2363 20.8226C29.2612 20.8226 27.8861 21.7511 27.7345 23.2087H29.5114C29.686 22.65 30.2785 22.3481 31.145 22.3481C32.1596 22.3481 32.7095 22.8013 32.7095 23.6087V24.3033L30.5673 24.4317C28.5469 24.5527 27.4146 25.4133 27.4146 26.9085C27.4153 28.4185 28.5618 29.3833 30.1649 29.3833ZM36.6583 32.2447C38.5191 32.2447 39.4079 31.565 40.1147 29.5118L43.1152 20.9873H41.1273L39.1901 27.4336H39.0609L37.1162 20.9853H35.0498L38.0199 29.2865L37.9211 29.6523C37.8508 29.9819 37.6593 30.2736 37.3842 30.4704C37.109 30.6673 36.7699 30.755 36.4331 30.7166C36.2603 30.7185 36.0876 30.7083 35.9163 30.6863V32.2192C36.0394 32.2387 36.5467 32.2461 36.6603 32.2461L36.6583 32.2447Z" fill="black"/>
</g>
</g>
<rect x="0.471698" y="0.471698" width="49.0566" height="49.0566" rx="5.7783" stroke="#EEEEEE" strokeWidth="0.943396"/>
</g>
<defs>
<clipPath id="clip0_1574_98829">
<rect width="50" height="50" rx="6.25" fill="white"/>
</clipPath>
</defs>
</svg>
