<svg width="25" height="25" viewBox="0 0 25 25" fill="none" xmlns="http://www.w3.org/2000/svg">
<g id="Bold / Home, Furniture / Bath">
<path id="Vector" d="M4.0625 4.2836C4.0625 3.38053 4.79459 2.64844 5.69766 2.64844C6.36629 2.64844 6.96755 3.05551 7.21588 3.67632L7.35915 4.03451C6.76464 4.46772 6.27893 5.07178 5.97973 5.80857C5.55942 6.84358 5.58209 7.95508 5.9603 8.91495C6.03471 9.10378 6.18247 9.2544 6.36985 9.3324C6.55723 9.4104 6.76822 9.40913 6.95465 9.32888L12.9154 6.7628C13.2875 6.60261 13.4651 6.17588 13.3166 5.79897C12.9383 4.83873 12.1995 4.02033 11.1842 3.58657C10.3728 3.23996 9.51202 3.19333 8.71873 3.39457L8.60859 3.11923C8.13247 1.92894 6.97965 1.14844 5.69766 1.14844C3.96616 1.14844 2.5625 2.5521 2.5625 4.2836V11.1484H2.3125C1.89829 11.1484 1.5625 11.4842 1.5625 11.8984C1.5625 12.3127 1.89829 12.6484 2.3125 12.6484H2.5625V12.8984C2.5625 12.9022 2.56253 12.906 2.56258 12.9098C2.56249 12.9284 2.5625 12.9469 2.56251 12.9652L2.56251 13.003C2.5625 13.3783 2.5625 13.5983 2.57807 13.8436C2.72001 16.08 3.92854 18.1452 5.68008 19.4956C5.66633 19.5172 5.65356 19.5398 5.64184 19.5632L4.64184 21.5632C4.4566 21.9337 4.60677 22.3842 4.97725 22.5694C5.34774 22.7547 5.79824 22.6045 5.98348 22.234L6.9512 20.2986C7.75292 20.7043 8.6248 20.9714 9.53161 21.0633C9.77605 21.088 9.92525 21.0936 10.1794 21.1032L10.1862 21.1034C10.9264 21.1313 11.651 21.1484 12.3125 21.1484C12.974 21.1484 13.6986 21.1313 14.4388 21.1034L14.4455 21.1032C14.6997 21.0936 14.849 21.088 15.0934 21.0633C16.0003 20.9714 16.8723 20.7043 17.6741 20.2985L18.6418 22.234C18.8271 22.6045 19.2776 22.7547 19.6481 22.5694C20.0186 22.3842 20.1687 21.9337 19.9835 21.5632L18.9835 19.5632C18.9717 19.5397 18.9589 19.5171 18.9452 19.4954C20.6966 18.1451 21.905 16.0799 22.047 13.8436C22.0625 13.5983 22.0625 13.3783 22.0625 13.0031L22.0625 12.9652C22.0625 12.9051 22.0626 12.8426 22.0588 12.7849C22.0558 12.7389 22.0511 12.6934 22.0446 12.6484H22.3125C22.7267 12.6484 23.0625 12.3127 23.0625 11.8984C23.0625 11.4842 22.7267 11.1484 22.3125 11.1484H4.0625V4.2836Z" fill="#9C9C9C"/>
</g>
</svg>
