<svg width="20" height="21" viewBox="0 0 20 21" fill="none" xmlns="http://www.w3.org/2000/svg">
<g id="Linear / Essentional, UI / Bed">
<path id="Vector" d="M1.66663 5.33594V15.3359" stroke="#FFC900" strokeWidth="1.25" strokeLinecap="round" strokeLinejoin="round"/>
<path id="Vector_2" d="M18.3333 15.3366V13.3723C18.3333 11.7099 18.3333 10.8786 18.0995 10.2104C17.6807 9.01356 16.7397 8.07254 15.5428 7.65374C14.8746 7.41992 14.0434 7.41992 12.381 7.41992C11.716 7.41992 11.3835 7.41992 11.1162 7.51345C10.6375 7.68097 10.261 8.05738 10.0935 8.53612C10 8.80341 10 9.1359 10 9.80087V13.6699" stroke="#FFC900" strokeWidth="1.25" strokeLinecap="round" strokeLinejoin="round"/>
<path id="Vector_3" d="M1.66663 13.6699H18.3333" stroke="#FFC900" strokeWidth="1.25" strokeLinecap="round" strokeLinejoin="round"/>
<path id="Vector_4" d="M7.91667 9.50326C7.91667 10.6538 6.98393 11.5866 5.83333 11.5866C4.68274 11.5866 3.75 10.6538 3.75 9.50326C3.75 8.35266 4.68274 7.41992 5.83333 7.41992C6.98393 7.41992 7.91667 8.35266 7.91667 9.50326Z" stroke="#FFC900" strokeWidth="1.25"/>
</g>
</svg>
