<svg width="25" height="25" viewBox="0 0 25 25" fill="none" xmlns="http://www.w3.org/2000/svg">
<g id="Bold / Home, Furniture / Bed">
<g id="Vector">
<path d="M11.8125 10.6484V7.39844H10.0625C9.09852 7.39844 8.45096 7.40003 7.96792 7.46498C7.50646 7.52702 7.30896 7.63424 7.17865 7.76456C7.04833 7.89487 6.94111 8.09237 6.87906 8.55383C6.81412 9.03687 6.81253 9.68443 6.81253 10.6484L11.8125 10.6484Z" fill="#9C9C9C"/>
<path d="M18.3125 10.6484C18.3125 9.68443 18.3109 9.03687 18.246 8.55383C18.184 8.09237 18.0767 7.89487 17.9464 7.76456C17.8161 7.63424 17.6186 7.52702 17.1571 7.46498C16.6741 7.40003 16.0265 7.39844 15.0625 7.39844H13.3125V10.6484L18.3125 10.6484Z" fill="#9C9C9C"/>
<path fill-rule="evenodd" clip-rule="evenodd" d="M13.5625 4.14844H11.5625C7.79129 4.14844 5.90567 4.14844 4.7341 5.32001C3.71163 6.34248 3.5815 7.90882 3.56494 10.7978V12.415C3.1846 12.6338 2.8845 12.9732 2.71474 13.3831C2.5625 13.7506 2.5625 14.2166 2.5625 15.1484C2.5625 16.0803 2.5625 16.5463 2.71474 16.9138C2.91773 17.4039 3.30708 17.7932 3.79713 17.9962C4.04952 18.1007 4.34831 18.1335 4.8125 18.1438V20.1484C4.8125 20.5627 5.14829 20.8984 5.5625 20.8984C5.97671 20.8984 6.3125 20.5627 6.3125 20.1484V18.1484H18.8125V20.1484C18.8125 20.5627 19.1483 20.8984 19.5625 20.8984C19.9767 20.8984 20.3125 20.5627 20.3125 20.1484V18.1438C20.7767 18.1335 21.0755 18.1007 21.3279 17.9962C21.8179 17.7932 22.2073 17.4039 22.4103 16.9138C22.5625 16.5463 22.5625 16.0803 22.5625 15.1484C22.5625 14.2166 22.5625 13.7506 22.4103 13.3831C22.2405 12.9733 21.9404 12.6339 21.5601 12.415V10.7978C21.5436 7.90882 21.4134 6.34248 20.391 5.32001C19.2194 4.14844 17.3338 4.14844 13.5625 4.14844ZM19.8125 12.1486V10.5964C19.8126 9.69799 19.8126 8.94871 19.7326 8.35396C19.6482 7.72617 19.4625 7.15937 19.0071 6.7039C18.5516 6.24843 17.9848 6.06276 17.357 5.97835C16.7622 5.89838 16.013 5.89841 15.1145 5.89844H10.0105C9.11205 5.89841 8.36283 5.89838 7.76805 5.97835C7.14026 6.06276 6.57345 6.24843 6.11799 6.7039C5.66252 7.15937 5.47684 7.72617 5.39244 8.35396C5.31247 8.94874 5.3125 9.69796 5.31253 10.5964V12.1486C5.39196 12.1484 5.47519 12.1484 5.5625 12.1484H19.5625C19.6498 12.1484 19.7331 12.1484 19.8125 12.1486Z" fill="#9C9C9C"/>
</g>
</g>
</svg>
