<svg width="21" height="21" viewBox="0 0 21 21" fill="none" xmlns="http://www.w3.org/2000/svg">
<g id="Outline / Building, Infrastructure / Buildings 2">
<path id="Vector (Stroke)" fill-rule="evenodd" clip-rule="evenodd" d="M9.62354 1.54199H11.3769C12.1256 1.54197 12.75 1.54195 13.2456 1.60859C13.7688 1.67892 14.2411 1.83365 14.6207 2.21321C15.0002 2.59277 15.1549 3.0651 15.2253 3.58826C15.2919 4.08391 15.2919 4.70826 15.2919 5.457L15.2919 6.54204C15.7723 6.54242 16.1795 6.54608 16.516 6.58031C16.9106 6.62045 17.2767 6.70771 17.6067 6.92821C17.8569 7.09541 18.0718 7.31025 18.239 7.56048C18.4595 7.89048 18.5467 8.25662 18.5869 8.65118C18.6252 9.02813 18.6252 9.49374 18.6252 10.0517V18.2087H18.8335C19.1787 18.2087 19.4585 18.4885 19.4585 18.8337C19.4585 19.1788 19.1787 19.4587 18.8335 19.4587H2.16687C1.82169 19.4587 1.54187 19.1788 1.54187 18.8337C1.54187 18.4885 1.82169 18.2087 2.16687 18.2087H2.3752L2.3752 10.0517C2.37519 9.49372 2.37518 9.02812 2.41352 8.65118C2.45366 8.25662 2.54092 7.89048 2.76142 7.56048C2.92862 7.31025 3.14346 7.09541 3.39369 6.92821C3.72369 6.70771 4.08983 6.62045 4.48439 6.58031C4.82089 6.54608 5.22806 6.54242 5.70854 6.54204L5.70854 5.457C5.70851 4.70826 5.70849 4.08391 5.77513 3.58826C5.84547 3.0651 6.00019 2.59277 6.37975 2.21321C6.75931 1.83365 7.23164 1.67892 7.7548 1.60859C8.25045 1.54195 8.8748 1.54197 9.62354 1.54199ZM5.70854 7.79208C5.22305 7.79262 4.88008 7.79651 4.61089 7.8239C4.31517 7.85398 4.17853 7.90716 4.08815 7.96755C3.97441 8.04355 3.87675 8.1412 3.80076 8.25494C3.74037 8.34532 3.68719 8.48196 3.6571 8.77768C3.62596 9.08386 3.6252 9.48546 3.6252 10.0837V18.2087H5.70854V7.79208ZM6.95854 18.2087H9.8752V16.3337C9.8752 15.9885 10.155 15.7087 10.5002 15.7087C10.8454 15.7087 11.1252 15.9885 11.1252 16.3337V18.2087H14.0419V5.50033C14.0419 4.69699 14.0405 4.15735 13.9864 3.75482C13.9347 3.37027 13.8454 3.20569 13.7368 3.09709C13.6282 2.98849 13.4636 2.89914 13.079 2.84744C12.6765 2.79332 12.1369 2.79199 11.3335 2.79199H9.66687C8.86353 2.79199 8.32389 2.79332 7.92136 2.84744C7.53681 2.89914 7.37223 2.98849 7.26363 3.09709C7.15504 3.20569 7.06568 3.37027 7.01398 3.75482C6.95986 4.15735 6.95854 4.69699 6.95854 5.50033V18.2087ZM15.2919 18.2087H17.3752V10.0837C17.3752 9.48546 17.3744 9.08386 17.3433 8.77768C17.3132 8.48196 17.26 8.34532 17.1997 8.25494C17.1237 8.1412 17.026 8.04355 16.9123 7.96755C16.8219 7.90716 16.6852 7.85398 16.3895 7.8239C16.1203 7.79651 15.7774 7.79262 15.2919 7.79208V18.2087ZM8.20854 4.66699C8.20854 4.32182 8.48836 4.04199 8.83354 4.04199H12.1669C12.512 4.04199 12.7919 4.32182 12.7919 4.66699C12.7919 5.01217 12.512 5.29199 12.1669 5.29199H8.83354C8.48836 5.29199 8.20854 5.01217 8.20854 4.66699ZM8.20854 7.167C8.20854 6.82182 8.48836 6.54199 8.83354 6.54199H12.1669C12.512 6.54199 12.7919 6.82182 12.7919 7.167C12.7919 7.51217 12.512 7.792 12.1669 7.792H8.83354C8.48836 7.792 8.20854 7.51217 8.20854 7.167ZM8.20854 9.667C8.20854 9.32182 8.48836 9.04199 8.83354 9.04199H12.1669C12.512 9.04199 12.7919 9.32182 12.7919 9.667C12.7919 10.0122 12.512 10.292 12.1669 10.292H8.83354C8.48836 10.292 8.20854 10.0122 8.20854 9.667ZM8.20854 12.167C8.20854 11.8218 8.48836 11.542 8.83354 11.542H12.1669C12.512 11.542 12.7919 11.8218 12.7919 12.167C12.7919 12.5122 12.512 12.792 12.1669 12.792H8.83354C8.48836 12.792 8.20854 12.5122 8.20854 12.167Z" fill="white"/>
</g>
</svg>
