<svg width="20" height="20" viewBox="0 0 20 20" fill="none" xmlns="http://www.w3.org/2000/svg">
<g id="Layer_1" clipPath="url(#clip0_1542_63217)">
<g id="Vector">
<mask id="path-1-outside-1_1542_63217" maskUnits="userSpaceOnUse" x="0.00012207" y="-1" width="20" height="22" fill="black">
<rect fill="white" x="0.00012207" y="-1" width="20" height="22"/>
<path d="M4.47406 0C4.59768 0.0323446 4.72236 0.0631245 4.84546 0.0980776C5.57575 0.306753 6.11721 0.762708 6.46932 1.4143C6.88663 2.18483 7.26481 2.97936 7.63413 3.77337C8.2601 5.11671 8.8652 6.46789 9.46977 7.82062C9.49919 7.89726 9.54753 7.96519 9.61028 8.0181C9.67304 8.07101 9.74816 8.10716 9.82866 8.1232C12.1239 8.74297 14.4177 9.36778 16.7101 9.99763C17.5072 10.2167 18.1759 10.6273 18.6193 11.3509C18.9323 11.8632 19.0423 12.424 18.9954 13.0156C18.9557 13.519 18.3976 13.94 17.878 13.832C17.1024 13.6708 16.3335 13.4752 15.562 13.2942L14.3205 13.0005C14.0033 14.1722 13.225 14.7085 12.0253 14.6636C12.0128 14.7257 11.9992 14.7805 11.9898 14.8358C11.9043 15.3538 11.6215 15.7158 11.1291 15.9026C11.0248 15.9428 10.9862 15.9981 11.0013 16.1024C11.0036 16.1218 11.0036 16.1414 11.0013 16.1608C10.9643 16.49 11.0013 16.7295 11.3821 16.8943C11.8072 17.0775 11.9742 17.511 12.0128 17.9972H12.224C12.7055 17.9972 13.187 17.993 13.6684 17.9972C14.2422 18.0045 14.6402 18.4286 14.6726 19.0025C14.7148 19.7574 14.4165 20.0041 13.6935 19.9999C10.5115 19.9817 7.3295 19.9921 4.14751 19.9921C3.58206 19.9921 3.34054 19.7516 3.34367 19.184C3.33851 19.0414 3.34918 18.8986 3.37549 18.7583C3.42154 18.5434 3.53987 18.3508 3.71073 18.2126C3.88159 18.0744 4.09467 17.9989 4.31444 17.9988C4.86685 17.9914 5.41926 17.9988 5.98941 17.9988C6.05097 17.3472 6.37647 16.9032 7.00191 16.7034V15.9579C6.39681 15.7534 6.05305 15.3319 5.99463 14.661C5.9143 14.661 5.83814 14.661 5.76406 14.661C4.51683 14.65 3.67752 13.8075 3.67126 12.5565C3.66865 11.8992 3.67439 11.2419 3.66761 10.5845C3.66697 10.4622 3.64234 10.3411 3.5951 10.2282C2.86689 8.55429 2.13538 6.88158 1.40057 5.2101C1.18774 4.72493 1.01404 4.2288 1.001 3.69303C0.978568 2.79938 1.38753 2.15196 2.1486 1.71322L2.26858 1.64488C2.24458 1.46594 2.20389 1.30057 2.20389 1.13571C2.2066 0.935435 2.2721 0.741055 2.39114 0.579978C2.51018 0.418901 2.67677 0.299249 2.86741 0.23789C3.16214 0.141377 3.46782 0.0782532 3.76828 0H4.47406ZM8.75565 10.9857C8.80782 10.9993 8.83755 11.0087 8.86833 11.016L15.2573 12.5362C16.1041 12.7375 16.9509 12.9392 17.7977 13.1413C18.203 13.2384 18.3595 13.1126 18.3392 12.6916C18.3304 12.4016 18.2602 12.1168 18.1331 11.856C18.0061 11.5952 17.8251 11.3643 17.6021 11.1787C17.2735 10.897 16.8848 10.7379 16.4738 10.6257C14.1303 9.98476 11.7857 9.34691 9.44004 8.71219C9.19957 8.6475 9.05455 8.5322 8.94918 8.29953C8.16985 6.56996 7.38149 4.84457 6.58408 3.12334C6.37542 2.66948 6.15529 2.21822 5.91273 1.78156C5.62166 1.25622 5.20122 0.872262 4.59873 0.725668C4.13499 0.612983 3.68221 0.673499 3.23517 0.816441C2.86063 0.934864 2.79334 1.07729 2.94357 1.44247C3.87869 3.69164 4.81434 5.94081 5.7505 8.18998C5.7745 8.24788 5.80267 8.30423 5.83083 8.36683C6.70718 7.84514 7.56528 7.83523 8.32791 8.51708C9.09054 9.19892 9.17922 10.0488 8.75565 10.9857ZM4.35356 10.6628C4.35356 11.4083 4.35356 12.1235 4.35356 12.8377C4.35651 12.8896 4.36598 12.941 4.38173 12.9906C4.54709 13.6213 5.05412 13.9917 5.76198 13.9922C7.92086 13.9922 10.0799 13.9922 12.2391 13.9922C12.3236 13.9922 12.4082 13.9891 12.4921 13.9812C13.0753 13.9291 13.5745 13.4345 13.635 12.8377L12.9428 12.6713C11.4266 12.3113 9.91038 11.9524 8.39416 11.5945C8.32294 11.5745 8.24681 11.582 8.18081 11.6154C7.13493 12.3739 5.64826 11.9529 5.15844 10.7666C5.148 10.7424 5.1322 10.7208 5.11223 10.7035C5.09227 10.6863 5.06865 10.6738 5.04316 10.667C4.81834 10.6576 4.59195 10.6628 4.35356 10.6628ZM4.9404 9.99345C5.05046 9.6554 5.13654 9.34447 5.25599 9.04763C5.27962 9.00032 5.29244 8.94835 5.29352 8.89548C5.2946 8.84261 5.28392 8.79016 5.26225 8.74192C4.5184 6.96193 3.77663 5.18088 3.03695 3.3988C2.88046 3.02214 2.72397 2.64548 2.55965 2.25108C2.12043 2.48115 1.80953 2.79155 1.70312 3.2689C1.58993 3.77493 1.71981 4.25332 1.91751 4.71136C2.59303 6.2733 3.27847 7.83106 3.96129 9.38986C4.04944 9.59071 4.09535 9.87033 4.25132 9.96372C4.41824 10.0681 4.69158 9.99345 4.91901 9.99606C4.93831 9.99606 4.95761 9.99084 4.9404 9.99345ZM13.983 19.3186C14.0409 18.8898 14.0138 18.654 13.4321 18.6566C10.4656 18.6707 7.49903 18.6629 4.53248 18.6634C4.46102 18.6634 4.38903 18.6592 4.31809 18.666C4.23871 18.6672 4.16276 18.6985 4.10562 18.7537C4.04848 18.8088 4.01441 18.8835 4.01032 18.9628C4.00263 19.0813 4.00175 19.2001 4.00771 19.3186H13.983ZM7.01339 8.66628C6.83899 8.66421 6.66591 8.69667 6.5041 8.76178C6.3423 8.82689 6.19498 8.92337 6.07061 9.04566C5.94625 9.16795 5.8473 9.31364 5.77947 9.47433C5.71164 9.63503 5.67627 9.80755 5.67539 9.98198C5.67242 10.1564 5.70398 10.3297 5.76826 10.4918C5.83254 10.654 5.92826 10.8018 6.04991 10.9268C6.17156 11.0518 6.31673 11.1516 6.47708 11.2202C6.63742 11.2889 6.80976 11.3251 6.98417 11.3269C7.16027 11.3295 7.33514 11.2972 7.49869 11.2319C7.66223 11.1665 7.81121 11.0694 7.93703 10.9462C8.06284 10.8229 8.16299 10.676 8.23169 10.5138C8.30039 10.3516 8.33629 10.1774 8.3373 10.0013C8.33786 9.64894 8.1989 9.31071 7.95081 9.06054C7.70272 8.81038 7.36568 8.66862 7.01339 8.66628ZM11.3294 14.6819H6.67536C6.73014 15.0867 6.9534 15.3204 7.32741 15.3241C8.4451 15.3338 9.56297 15.3338 10.681 15.3241C11.0571 15.3199 11.2799 15.083 11.3294 14.6819ZM6.68684 17.9857H11.3179C11.3101 17.6059 11.0529 17.3404 10.6795 17.3341C10.21 17.3263 9.7405 17.3341 9.27416 17.3341C8.62994 17.3341 7.98572 17.3305 7.3441 17.3341C6.95392 17.3367 6.6931 17.5981 6.68632 17.9857H6.68684ZM7.6863 16.0075V16.6512H10.318V16.0075H7.6863Z"/>
</mask>
<path d="M4.47406 0C4.59768 0.0323446 4.72236 0.0631245 4.84546 0.0980776C5.57575 0.306753 6.11721 0.762708 6.46932 1.4143C6.88663 2.18483 7.26481 2.97936 7.63413 3.77337C8.2601 5.11671 8.8652 6.46789 9.46977 7.82062C9.49919 7.89726 9.54753 7.96519 9.61028 8.0181C9.67304 8.07101 9.74816 8.10716 9.82866 8.1232C12.1239 8.74297 14.4177 9.36778 16.7101 9.99763C17.5072 10.2167 18.1759 10.6273 18.6193 11.3509C18.9323 11.8632 19.0423 12.424 18.9954 13.0156C18.9557 13.519 18.3976 13.94 17.878 13.832C17.1024 13.6708 16.3335 13.4752 15.562 13.2942L14.3205 13.0005C14.0033 14.1722 13.225 14.7085 12.0253 14.6636C12.0128 14.7257 11.9992 14.7805 11.9898 14.8358C11.9043 15.3538 11.6215 15.7158 11.1291 15.9026C11.0248 15.9428 10.9862 15.9981 11.0013 16.1024C11.0036 16.1218 11.0036 16.1414 11.0013 16.1608C10.9643 16.49 11.0013 16.7295 11.3821 16.8943C11.8072 17.0775 11.9742 17.511 12.0128 17.9972H12.224C12.7055 17.9972 13.187 17.993 13.6684 17.9972C14.2422 18.0045 14.6402 18.4286 14.6726 19.0025C14.7148 19.7574 14.4165 20.0041 13.6935 19.9999C10.5115 19.9817 7.3295 19.9921 4.14751 19.9921C3.58206 19.9921 3.34054 19.7516 3.34367 19.184C3.33851 19.0414 3.34918 18.8986 3.37549 18.7583C3.42154 18.5434 3.53987 18.3508 3.71073 18.2126C3.88159 18.0744 4.09467 17.9989 4.31444 17.9988C4.86685 17.9914 5.41926 17.9988 5.98941 17.9988C6.05097 17.3472 6.37647 16.9032 7.00191 16.7034V15.9579C6.39681 15.7534 6.05305 15.3319 5.99463 14.661C5.9143 14.661 5.83814 14.661 5.76406 14.661C4.51683 14.65 3.67752 13.8075 3.67126 12.5565C3.66865 11.8992 3.67439 11.2419 3.66761 10.5845C3.66697 10.4622 3.64234 10.3411 3.5951 10.2282C2.86689 8.55429 2.13538 6.88158 1.40057 5.2101C1.18774 4.72493 1.01404 4.2288 1.001 3.69303C0.978568 2.79938 1.38753 2.15196 2.1486 1.71322L2.26858 1.64488C2.24458 1.46594 2.20389 1.30057 2.20389 1.13571C2.2066 0.935435 2.2721 0.741055 2.39114 0.579978C2.51018 0.418901 2.67677 0.299249 2.86741 0.23789C3.16214 0.141377 3.46782 0.0782532 3.76828 0H4.47406ZM8.75565 10.9857C8.80782 10.9993 8.83755 11.0087 8.86833 11.016L15.2573 12.5362C16.1041 12.7375 16.9509 12.9392 17.7977 13.1413C18.203 13.2384 18.3595 13.1126 18.3392 12.6916C18.3304 12.4016 18.2602 12.1168 18.1331 11.856C18.0061 11.5952 17.8251 11.3643 17.6021 11.1787C17.2735 10.897 16.8848 10.7379 16.4738 10.6257C14.1303 9.98476 11.7857 9.34691 9.44004 8.71219C9.19957 8.6475 9.05455 8.5322 8.94918 8.29953C8.16985 6.56996 7.38149 4.84457 6.58408 3.12334C6.37542 2.66948 6.15529 2.21822 5.91273 1.78156C5.62166 1.25622 5.20122 0.872262 4.59873 0.725668C4.13499 0.612983 3.68221 0.673499 3.23517 0.816441C2.86063 0.934864 2.79334 1.07729 2.94357 1.44247C3.87869 3.69164 4.81434 5.94081 5.7505 8.18998C5.7745 8.24788 5.80267 8.30423 5.83083 8.36683C6.70718 7.84514 7.56528 7.83523 8.32791 8.51708C9.09054 9.19892 9.17922 10.0488 8.75565 10.9857ZM4.35356 10.6628C4.35356 11.4083 4.35356 12.1235 4.35356 12.8377C4.35651 12.8896 4.36598 12.941 4.38173 12.9906C4.54709 13.6213 5.05412 13.9917 5.76198 13.9922C7.92086 13.9922 10.0799 13.9922 12.2391 13.9922C12.3236 13.9922 12.4082 13.9891 12.4921 13.9812C13.0753 13.9291 13.5745 13.4345 13.635 12.8377L12.9428 12.6713C11.4266 12.3113 9.91038 11.9524 8.39416 11.5945C8.32294 11.5745 8.24681 11.582 8.18081 11.6154C7.13493 12.3739 5.64826 11.9529 5.15844 10.7666C5.148 10.7424 5.1322 10.7208 5.11223 10.7035C5.09227 10.6863 5.06865 10.6738 5.04316 10.667C4.81834 10.6576 4.59195 10.6628 4.35356 10.6628ZM4.9404 9.99345C5.05046 9.6554 5.13654 9.34447 5.25599 9.04763C5.27962 9.00032 5.29244 8.94835 5.29352 8.89548C5.2946 8.84261 5.28392 8.79016 5.26225 8.74192C4.5184 6.96193 3.77663 5.18088 3.03695 3.3988C2.88046 3.02214 2.72397 2.64548 2.55965 2.25108C2.12043 2.48115 1.80953 2.79155 1.70312 3.2689C1.58993 3.77493 1.71981 4.25332 1.91751 4.71136C2.59303 6.2733 3.27847 7.83106 3.96129 9.38986C4.04944 9.59071 4.09535 9.87033 4.25132 9.96372C4.41824 10.0681 4.69158 9.99345 4.91901 9.99606C4.93831 9.99606 4.95761 9.99084 4.9404 9.99345ZM13.983 19.3186C14.0409 18.8898 14.0138 18.654 13.4321 18.6566C10.4656 18.6707 7.49903 18.6629 4.53248 18.6634C4.46102 18.6634 4.38903 18.6592 4.31809 18.666C4.23871 18.6672 4.16276 18.6985 4.10562 18.7537C4.04848 18.8088 4.01441 18.8835 4.01032 18.9628C4.00263 19.0813 4.00175 19.2001 4.00771 19.3186H13.983ZM7.01339 8.66628C6.83899 8.66421 6.66591 8.69667 6.5041 8.76178C6.3423 8.82689 6.19498 8.92337 6.07061 9.04566C5.94625 9.16795 5.8473 9.31364 5.77947 9.47433C5.71164 9.63503 5.67627 9.80755 5.67539 9.98198C5.67242 10.1564 5.70398 10.3297 5.76826 10.4918C5.83254 10.654 5.92826 10.8018 6.04991 10.9268C6.17156 11.0518 6.31673 11.1516 6.47708 11.2202C6.63742 11.2889 6.80976 11.3251 6.98417 11.3269C7.16027 11.3295 7.33514 11.2972 7.49869 11.2319C7.66223 11.1665 7.81121 11.0694 7.93703 10.9462C8.06284 10.8229 8.16299 10.676 8.23169 10.5138C8.30039 10.3516 8.33629 10.1774 8.3373 10.0013C8.33786 9.64894 8.1989 9.31071 7.95081 9.06054C7.70272 8.81038 7.36568 8.66862 7.01339 8.66628ZM11.3294 14.6819H6.67536C6.73014 15.0867 6.9534 15.3204 7.32741 15.3241C8.4451 15.3338 9.56297 15.3338 10.681 15.3241C11.0571 15.3199 11.2799 15.083 11.3294 14.6819ZM6.68684 17.9857H11.3179C11.3101 17.6059 11.0529 17.3404 10.6795 17.3341C10.21 17.3263 9.7405 17.3341 9.27416 17.3341C8.62994 17.3341 7.98572 17.3305 7.3441 17.3341C6.95392 17.3367 6.6931 17.5981 6.68632 17.9857H6.68684ZM7.6863 16.0075V16.6512H10.318V16.0075H7.6863Z" fill="#FFC900"/>
<path d="M4.47406 0C4.59768 0.0323446 4.72236 0.0631245 4.84546 0.0980776C5.57575 0.306753 6.11721 0.762708 6.46932 1.4143C6.88663 2.18483 7.26481 2.97936 7.63413 3.77337C8.2601 5.11671 8.8652 6.46789 9.46977 7.82062C9.49919 7.89726 9.54753 7.96519 9.61028 8.0181C9.67304 8.07101 9.74816 8.10716 9.82866 8.1232C12.1239 8.74297 14.4177 9.36778 16.7101 9.99763C17.5072 10.2167 18.1759 10.6273 18.6193 11.3509C18.9323 11.8632 19.0423 12.424 18.9954 13.0156C18.9557 13.519 18.3976 13.94 17.878 13.832C17.1024 13.6708 16.3335 13.4752 15.562 13.2942L14.3205 13.0005C14.0033 14.1722 13.225 14.7085 12.0253 14.6636C12.0128 14.7257 11.9992 14.7805 11.9898 14.8358C11.9043 15.3538 11.6215 15.7158 11.1291 15.9026C11.0248 15.9428 10.9862 15.9981 11.0013 16.1024C11.0036 16.1218 11.0036 16.1414 11.0013 16.1608C10.9643 16.49 11.0013 16.7295 11.3821 16.8943C11.8072 17.0775 11.9742 17.511 12.0128 17.9972H12.224C12.7055 17.9972 13.187 17.993 13.6684 17.9972C14.2422 18.0045 14.6402 18.4286 14.6726 19.0025C14.7148 19.7574 14.4165 20.0041 13.6935 19.9999C10.5115 19.9817 7.3295 19.9921 4.14751 19.9921C3.58206 19.9921 3.34054 19.7516 3.34367 19.184C3.33851 19.0414 3.34918 18.8986 3.37549 18.7583C3.42154 18.5434 3.53987 18.3508 3.71073 18.2126C3.88159 18.0744 4.09467 17.9989 4.31444 17.9988C4.86685 17.9914 5.41926 17.9988 5.98941 17.9988C6.05097 17.3472 6.37647 16.9032 7.00191 16.7034V15.9579C6.39681 15.7534 6.05305 15.3319 5.99463 14.661C5.9143 14.661 5.83814 14.661 5.76406 14.661C4.51683 14.65 3.67752 13.8075 3.67126 12.5565C3.66865 11.8992 3.67439 11.2419 3.66761 10.5845C3.66697 10.4622 3.64234 10.3411 3.5951 10.2282C2.86689 8.55429 2.13538 6.88158 1.40057 5.2101C1.18774 4.72493 1.01404 4.2288 1.001 3.69303C0.978568 2.79938 1.38753 2.15196 2.1486 1.71322L2.26858 1.64488C2.24458 1.46594 2.20389 1.30057 2.20389 1.13571C2.2066 0.935435 2.2721 0.741055 2.39114 0.579978C2.51018 0.418901 2.67677 0.299249 2.86741 0.23789C3.16214 0.141377 3.46782 0.0782532 3.76828 0H4.47406ZM8.75565 10.9857C8.80782 10.9993 8.83755 11.0087 8.86833 11.016L15.2573 12.5362C16.1041 12.7375 16.9509 12.9392 17.7977 13.1413C18.203 13.2384 18.3595 13.1126 18.3392 12.6916C18.3304 12.4016 18.2602 12.1168 18.1331 11.856C18.0061 11.5952 17.8251 11.3643 17.6021 11.1787C17.2735 10.897 16.8848 10.7379 16.4738 10.6257C14.1303 9.98476 11.7857 9.34691 9.44004 8.71219C9.19957 8.6475 9.05455 8.5322 8.94918 8.29953C8.16985 6.56996 7.38149 4.84457 6.58408 3.12334C6.37542 2.66948 6.15529 2.21822 5.91273 1.78156C5.62166 1.25622 5.20122 0.872262 4.59873 0.725668C4.13499 0.612983 3.68221 0.673499 3.23517 0.816441C2.86063 0.934864 2.79334 1.07729 2.94357 1.44247C3.87869 3.69164 4.81434 5.94081 5.7505 8.18998C5.7745 8.24788 5.80267 8.30423 5.83083 8.36683C6.70718 7.84514 7.56528 7.83523 8.32791 8.51708C9.09054 9.19892 9.17922 10.0488 8.75565 10.9857ZM4.35356 10.6628C4.35356 11.4083 4.35356 12.1235 4.35356 12.8377C4.35651 12.8896 4.36598 12.941 4.38173 12.9906C4.54709 13.6213 5.05412 13.9917 5.76198 13.9922C7.92086 13.9922 10.0799 13.9922 12.2391 13.9922C12.3236 13.9922 12.4082 13.9891 12.4921 13.9812C13.0753 13.9291 13.5745 13.4345 13.635 12.8377L12.9428 12.6713C11.4266 12.3113 9.91038 11.9524 8.39416 11.5945C8.32294 11.5745 8.24681 11.582 8.18081 11.6154C7.13493 12.3739 5.64826 11.9529 5.15844 10.7666C5.148 10.7424 5.1322 10.7208 5.11223 10.7035C5.09227 10.6863 5.06865 10.6738 5.04316 10.667C4.81834 10.6576 4.59195 10.6628 4.35356 10.6628ZM4.9404 9.99345C5.05046 9.6554 5.13654 9.34447 5.25599 9.04763C5.27962 9.00032 5.29244 8.94835 5.29352 8.89548C5.2946 8.84261 5.28392 8.79016 5.26225 8.74192C4.5184 6.96193 3.77663 5.18088 3.03695 3.3988C2.88046 3.02214 2.72397 2.64548 2.55965 2.25108C2.12043 2.48115 1.80953 2.79155 1.70312 3.2689C1.58993 3.77493 1.71981 4.25332 1.91751 4.71136C2.59303 6.2733 3.27847 7.83106 3.96129 9.38986C4.04944 9.59071 4.09535 9.87033 4.25132 9.96372C4.41824 10.0681 4.69158 9.99345 4.91901 9.99606C4.93831 9.99606 4.95761 9.99084 4.9404 9.99345ZM13.983 19.3186C14.0409 18.8898 14.0138 18.654 13.4321 18.6566C10.4656 18.6707 7.49903 18.6629 4.53248 18.6634C4.46102 18.6634 4.38903 18.6592 4.31809 18.666C4.23871 18.6672 4.16276 18.6985 4.10562 18.7537C4.04848 18.8088 4.01441 18.8835 4.01032 18.9628C4.00263 19.0813 4.00175 19.2001 4.00771 19.3186H13.983ZM7.01339 8.66628C6.83899 8.66421 6.66591 8.69667 6.5041 8.76178C6.3423 8.82689 6.19498 8.92337 6.07061 9.04566C5.94625 9.16795 5.8473 9.31364 5.77947 9.47433C5.71164 9.63503 5.67627 9.80755 5.67539 9.98198C5.67242 10.1564 5.70398 10.3297 5.76826 10.4918C5.83254 10.654 5.92826 10.8018 6.04991 10.9268C6.17156 11.0518 6.31673 11.1516 6.47708 11.2202C6.63742 11.2889 6.80976 11.3251 6.98417 11.3269C7.16027 11.3295 7.33514 11.2972 7.49869 11.2319C7.66223 11.1665 7.81121 11.0694 7.93703 10.9462C8.06284 10.8229 8.16299 10.676 8.23169 10.5138C8.30039 10.3516 8.33629 10.1774 8.3373 10.0013C8.33786 9.64894 8.1989 9.31071 7.95081 9.06054C7.70272 8.81038 7.36568 8.66862 7.01339 8.66628ZM11.3294 14.6819H6.67536C6.73014 15.0867 6.9534 15.3204 7.32741 15.3241C8.4451 15.3338 9.56297 15.3338 10.681 15.3241C11.0571 15.3199 11.2799 15.083 11.3294 14.6819ZM6.68684 17.9857H11.3179C11.3101 17.6059 11.0529 17.3404 10.6795 17.3341C10.21 17.3263 9.7405 17.3341 9.27416 17.3341C8.62994 17.3341 7.98572 17.3305 7.3441 17.3341C6.95392 17.3367 6.6931 17.5981 6.68632 17.9857H6.68684ZM7.6863 16.0075V16.6512H10.318V16.0075H7.6863Z" stroke="#FFC900" strokeWidth="0.3" mask="url(#path-1-outside-1_1542_63217)"/>
</g>
</g>
<defs>
<clipPath id="clip0_1542_63217">
<rect width="20" height="20" fill="white"/>
</clipPath>
</defs>
</svg>
