<svg width="20" height="21" viewBox="0 0 20 21" fill="none" xmlns="http://www.w3.org/2000/svg">
<g id="Linear / Essentional, UI / Flag 2">
<path id="Vector" d="M4.16663 19.0983V12.4316M4.16663 12.4316V4.09831M4.16663 12.4316L6.22552 12.0199C7.60096 11.7448 9.02671 11.8757 10.3291 12.3966C11.7404 12.9611 13.2936 13.0666 14.7683 12.6979L14.8517 12.677C15.3401 12.5549 15.5717 11.9957 15.3127 11.564L14.0122 9.39646C13.7276 8.92217 13.5853 8.68502 13.5516 8.42706C13.5375 8.31946 13.5375 8.21049 13.5516 8.10288C13.5853 7.84493 13.7276 7.60778 14.0122 7.13348L15.0776 5.35774C15.3565 4.89298 14.9342 4.32307 14.4084 4.45453C13.1677 4.7647 11.8609 4.676 10.6735 4.20104L10.3291 4.06328C9.02671 3.54234 7.60096 3.41144 6.22552 3.68653L4.16663 4.09831M4.16663 4.09831V2.43164" stroke="#FFC900" strokeWidth="1.25" strokeLinecap="round"/>
</g>
</svg>
