<svg width="20" height="21" viewBox="0 0 20 21" fill="none" xmlns="http://www.w3.org/2000/svg">
<g id="Layer_1" clipPath="url(#clip0_2978_7934)">
<path id="Vector" d="M-0.000488281 13.4308V13.1569C0.102637 13.0169 0.191309 12.8631 0.312012 12.7399C0.765918 12.2732 1.23779 11.8241 1.68662 11.3531C1.90107 11.1277 2.13662 11.0401 2.44678 11.0401C3.60537 11.0526 4.76436 11.0424 5.92334 11.0483C5.98689 11.0511 6.05026 11.0398 6.1089 11.0151C6.16753 10.9904 6.21996 10.953 6.2624 10.9055C6.87529 10.2851 7.49482 9.67127 8.11201 9.05473C8.15654 9.01013 8.19873 8.9628 8.25146 8.90646C8.18115 8.86147 8.12256 8.82196 8.06201 8.78558C7.44795 8.41863 6.83363 8.05194 6.21904 7.68551C4.5555 6.69185 2.89183 5.69792 1.22803 4.70374C0.795215 4.44476 0.743261 4.03869 1.09521 3.68661C1.60889 3.16904 2.12686 2.65617 2.64092 2.13939C2.82529 1.95395 3.03467 1.87963 3.29639 1.94378C3.78936 2.06115 4.28584 2.1656 4.78076 2.28374C4.90225 2.31308 4.98467 2.2947 5.07334 2.20237C5.35303 1.91171 5.63506 1.62221 5.93037 1.34759C6.00269 1.27635 6.09245 1.22544 6.19064 1.19997C6.28884 1.1745 6.39199 1.17537 6.48974 1.20249C6.5875 1.22961 6.6764 1.28203 6.7475 1.35447C6.81861 1.42691 6.86942 1.51682 6.89482 1.61517C6.95889 1.84442 6.88506 2.03728 6.72334 2.20198C6.59092 2.33734 6.45693 2.47113 6.31787 2.61118C6.35693 2.63348 6.36279 2.63817 6.36865 2.63974C6.72998 2.72228 7.09404 2.79348 7.45068 2.89207C7.60967 2.93627 7.70146 2.88972 7.80459 2.78135C8.05654 2.51807 8.31592 2.26183 8.57764 2.00794C8.85537 1.7384 9.20264 1.73136 9.44404 1.98212C9.67842 2.22506 9.66748 2.56893 9.40225 2.83378C9.27647 2.96014 9.13193 3.0685 8.99561 3.18586L9.04053 3.24845C9.43115 3.33765 9.82178 3.43271 10.2179 3.51056C10.2591 3.51541 10.3008 3.51173 10.3405 3.49975C10.3802 3.48778 10.4171 3.46775 10.4487 3.44093C10.728 3.17765 10.9956 2.90185 11.269 2.63035C11.4198 2.47974 11.5972 2.39367 11.8159 2.43475C12.2737 2.51768 12.4577 3.04151 12.1519 3.39946C12.0198 3.55594 11.8698 3.69365 11.712 3.85639C12.0925 3.94285 12.444 4.01013 12.7882 4.10598C12.9702 4.15644 13.0823 4.11302 13.2124 3.98197C14.1667 3.02156 15.1073 2.04589 16.0948 1.12069C17.2702 0.0198334 19.1698 0.448205 19.8058 1.92853C19.8995 2.14643 19.9413 2.38663 20.0073 2.61627V3.08571C19.9957 3.1013 19.9869 3.11877 19.9812 3.13735C19.9062 3.75467 19.5964 4.23899 19.1589 4.66775C18.2605 5.5464 17.378 6.43952 16.4913 7.32795C16.4409 7.3788 16.3741 7.46135 16.3831 7.51494C16.4679 7.93901 16.5698 8.35995 16.6663 8.78167L16.7288 8.82079C16.8421 8.69052 16.944 8.54694 17.0726 8.4335C17.1721 8.34239 17.2918 8.27616 17.4218 8.24024C17.6741 8.18117 17.9108 8.30714 18.0312 8.52504C18.0911 8.63439 18.1135 8.7604 18.0951 8.88377C18.0767 9.00714 18.0184 9.12106 17.9292 9.20808C17.6515 9.50031 17.3601 9.78002 17.0784 10.0687C17.037 10.111 16.9839 10.1818 16.9933 10.228C17.0792 10.6493 17.178 11.0679 17.2862 11.5459C17.437 11.3824 17.5472 11.2549 17.6659 11.1359C17.9472 10.8558 18.3022 10.8378 18.5472 11.0863C18.7921 11.3347 18.7687 11.6817 18.4878 11.9669C18.2956 12.1625 18.1167 12.3729 17.9042 12.5419C17.6354 12.7555 17.5644 12.984 17.6815 13.3122C17.7819 13.5931 17.8222 13.8955 17.9019 14.2445C18.0343 14.0989 18.1261 13.9898 18.2265 13.8885C18.5608 13.5512 18.8983 13.5106 19.164 13.7711C19.4296 14.0316 19.389 14.3798 19.0468 14.721C18.7983 14.9698 18.5448 15.2135 18.3046 15.4701C18.2782 15.5019 18.2587 15.5389 18.2473 15.5786C18.2359 15.6183 18.2328 15.6599 18.2382 15.7009C18.3413 16.2036 18.4565 16.704 18.5726 17.2039C18.628 17.443 18.5944 17.6573 18.4163 17.8353C17.8745 18.3795 17.3354 18.9264 16.7854 19.4628C16.4858 19.7554 16.0823 19.6975 15.8507 19.3493C15.8147 19.2953 15.7819 19.239 15.7483 19.1834C14.4056 16.935 13.0623 14.6861 11.7183 12.4367C11.6761 12.3663 11.6319 12.297 11.5675 12.1934C10.8933 12.8768 10.237 13.5454 9.57529 14.2081C9.53344 14.2471 9.50058 14.2948 9.47899 14.3478C9.45741 14.4009 9.44761 14.458 9.45029 14.5152C9.4542 15.7189 9.45029 16.923 9.45537 18.1268C9.46014 18.2434 9.43975 18.3597 9.3956 18.4677C9.35144 18.5757 9.28457 18.6729 9.19951 18.7527C8.71592 19.2261 8.24522 19.7131 7.76123 20.1861C7.63818 20.3062 7.48428 20.395 7.34443 20.4991H7.071C6.83311 20.4036 6.70381 20.2143 6.59717 19.9905C6.07373 18.8873 5.54248 17.788 5.01318 16.6875C4.98428 16.6277 4.95186 16.5702 4.91123 16.4919C4.5542 16.8511 4.22178 17.1899 3.8835 17.5228C3.61318 17.7884 3.25381 17.7966 3.01592 17.5548C2.77803 17.3131 2.79365 16.9653 3.05147 16.7005C3.34209 16.4024 3.63975 16.1113 3.9335 15.8163C3.98115 15.7682 4.02568 15.7166 4.08232 15.6548C3.99209 15.609 3.92607 15.5734 3.85498 15.5394C2.74053 14.994 1.62842 14.444 0.510059 13.9061C0.285059 13.7961 0.0963867 13.6655 -0.000488281 13.4308ZM7.38232 18.9112C7.64404 18.6494 7.87803 18.4049 8.12451 18.1737C8.17724 18.1278 8.21875 18.0704 8.24584 18.0059C8.27292 17.9414 8.28487 17.8715 8.28076 17.8017C8.27412 16.6242 8.28428 15.4462 8.27217 14.2687C8.26943 13.971 8.36865 13.7519 8.57686 13.545C11.8339 10.3042 15.0878 7.06049 18.3386 3.81375C18.4272 3.72813 18.5099 3.63664 18.5862 3.5399C19.0577 2.9218 18.7698 1.99386 18.0315 1.74896C17.514 1.57762 17.094 1.74427 16.7233 2.11552C13.4452 5.39044 10.1666 8.6647 6.8874 11.9383C6.79908 12.0328 6.69156 12.1072 6.57209 12.1565C6.45261 12.2059 6.32397 12.229 6.19482 12.2243C5.08154 12.2153 3.96826 12.2294 2.85576 12.2145C2.58779 12.211 2.38975 12.2732 2.21357 12.4797C2.02295 12.7039 1.7999 12.9007 1.58857 13.1108C1.60528 13.1268 1.62317 13.1416 1.64209 13.155C2.71045 13.6776 3.77959 14.1979 4.84521 14.7249C4.95303 14.7781 5.00732 14.7413 5.07959 14.6705C5.47764 14.2683 5.87998 13.8697 6.2792 13.4683C6.42412 13.3228 6.5917 13.2301 6.80107 13.2547C7.03545 13.2821 7.20381 13.4065 7.28662 13.6256C7.37881 13.8689 7.3167 14.0876 7.13584 14.2699C6.73975 14.6693 6.34326 15.0738 5.93701 15.465C5.81982 15.5769 5.8167 15.6583 5.88584 15.7976C6.21436 16.4626 6.52959 17.132 6.8499 17.7997C7.02178 18.1643 7.19678 18.5239 7.38232 18.91V18.9112ZM15.3761 8.43506C15.3058 8.50156 15.2628 8.54029 15.2198 8.58137C14.3401 9.45885 13.462 10.3391 12.5784 11.2118C12.4659 11.3226 12.4499 11.3957 12.5347 11.5365C13.8144 13.6639 15.0904 15.7939 16.3628 17.9265C16.3979 17.9848 16.4354 18.0415 16.4878 18.1221C16.7456 17.86 16.9749 17.6135 17.2214 17.3815C17.3409 17.2701 17.3687 17.1683 17.3319 17.0091C16.8772 15.0351 16.4262 13.0599 15.9788 11.0835C15.7808 10.2104 15.5819 9.33718 15.3769 8.43389L15.3761 8.43506ZM9.06475 8.02429L11.9608 5.11372L8.77061 4.38843C6.99092 3.98392 5.2111 3.58046 3.43115 3.17804C3.37021 3.16435 3.2749 3.16943 3.23584 3.20699C2.95381 3.47379 2.68154 3.75155 2.39209 4.03947L9.06475 8.02429Z" fill="white"/>
</g>
<defs>
<clipPath id="clip0_2978_7934">
<rect width="20" height="20" fill="white" transform="translate(0 0.5)"/>
</clipPath>
</defs>
</svg>
