<svg width="25" height="25" viewBox="0 0 25 25" fill="none" xmlns="http://www.w3.org/2000/svg">
<g id="Bold / Home, Furniture / Fridge">
<g id="Vector">
<path fill-rule="evenodd" clip-rule="evenodd" d="M5.73407 3.32001C4.5625 4.49158 4.5625 6.3772 4.5625 10.1484V10.8984H20.5625V10.1484C20.5625 6.3772 20.5625 4.49158 19.3909 3.32001C18.2194 2.14844 16.3337 2.14844 12.5625 2.14844C8.79126 2.14844 6.90565 2.14844 5.73407 3.32001ZM17.5625 6.39844C17.9767 6.39844 18.3125 6.73422 18.3125 7.14844V9.14844C18.3125 9.56265 17.9767 9.89844 17.5625 9.89844C17.1483 9.89844 16.8125 9.56265 16.8125 9.14844V7.14844C16.8125 6.73422 17.1483 6.39844 17.5625 6.39844Z" fill="#9C9C9C"/>
<path fill-rule="evenodd" clip-rule="evenodd" d="M4.5625 12.3984V13.1484C4.5625 16.9197 4.5625 18.8053 5.73407 19.9769C6.03849 20.2813 6.39111 20.5066 6.8125 20.6734V22.1484C6.8125 22.5627 7.14829 22.8984 7.5625 22.8984H8.5625C8.97671 22.8984 9.3125 22.5627 9.3125 22.1484V21.1018C10.2071 21.1484 11.2749 21.1484 12.5625 21.1484C13.8501 21.1484 14.9179 21.1484 15.8125 21.1018V22.1484C15.8125 22.5627 16.1483 22.8984 16.5625 22.8984H17.5625C17.9767 22.8984 18.3125 22.5627 18.3125 22.1484V20.6734C18.7339 20.5066 19.0865 20.2813 19.3909 19.9769C20.5625 18.8053 20.5625 16.9197 20.5625 13.1484V12.3984H4.5625ZM17.5625 13.3984C17.9767 13.3984 18.3125 13.7342 18.3125 14.1484V16.1484C18.3125 16.5627 17.9767 16.8984 17.5625 16.8984C17.1483 16.8984 16.8125 16.5627 16.8125 16.1484V14.1484C16.8125 13.7342 17.1483 13.3984 17.5625 13.3984Z" fill="#9C9C9C"/>
</g>
</g>
</svg>
