<svg width="21" height="21" viewBox="0 0 21 21" fill="none" xmlns="http://www.w3.org/2000/svg">
<g id="Outline / Medicine / Heart Pulse">
<g id="Vector">
<path d="M8.91093 9.45649C8.98555 9.34989 9.04752 9.26143 9.10268 9.18566C9.14937 9.26693 9.20144 9.36154 9.26415 9.47556L10.6894 12.0669C10.8277 12.3186 10.9635 12.5655 11.0997 12.7447C11.2455 12.9364 11.5019 13.1991 11.9128 13.2068C12.3236 13.2145 12.5897 12.9616 12.7426 12.7755C12.8855 12.6016 13.0304 12.36 13.1781 12.1136L13.2243 12.0367C13.4083 11.73 13.5241 11.5383 13.6267 11.3998C13.7211 11.2722 13.7757 11.2305 13.8164 11.2075C13.8572 11.1844 13.9209 11.159 14.079 11.1437C14.2505 11.127 14.4745 11.1263 14.8321 11.1263H15.5C15.8451 11.1263 16.125 10.8465 16.125 10.5013C16.125 10.1562 15.8451 9.87634 15.5 9.87634L14.8052 9.87634C14.4825 9.87632 14.1972 9.87631 13.958 9.89955C13.6987 9.92475 13.4464 9.98052 13.2006 10.1197C12.9547 10.2589 12.7771 10.4466 12.622 10.656C12.4791 10.8491 12.3323 11.0938 12.1663 11.3705L12.1267 11.4364C12.0544 11.5569 11.9942 11.6573 11.9403 11.7434C11.8896 11.6553 11.8332 11.5528 11.7655 11.4297L10.341 8.83957C10.2125 8.60591 10.0846 8.37313 9.95478 8.20247C9.81299 8.01604 9.56987 7.76953 9.18028 7.7485C8.79068 7.72746 8.52244 7.94636 8.3614 8.11644C8.21398 8.27213 8.06171 8.48978 7.90887 8.70825L7.65105 9.07658C7.46176 9.34699 7.34308 9.51549 7.24036 9.637C7.1458 9.74886 7.09324 9.7855 7.05444 9.8057C7.01564 9.8259 6.95548 9.84795 6.80962 9.86127C6.65116 9.87574 6.44507 9.87634 6.11499 9.87634H5.49996C5.15478 9.87634 4.87496 10.1562 4.87496 10.5013C4.87496 10.8465 5.15478 11.1263 5.49996 11.1263H6.14006C6.43753 11.1264 6.70123 11.1264 6.9233 11.1061C7.16419 11.0841 7.39916 11.0355 7.6317 10.9144C7.86425 10.7933 8.0388 10.6287 8.19496 10.444C8.33893 10.2737 8.49013 10.0577 8.66071 9.81394L8.91093 9.45649Z" fill="white"/>
<path fill-rule="evenodd" clip-rule="evenodd" d="M19.4583 8.21825C19.4583 5.5673 18.2148 3.50657 16.3129 2.71534C14.5384 1.97712 12.3952 2.42584 10.5 4.19852C8.6047 2.42584 6.46151 1.97716 4.68702 2.7154C2.78511 3.50665 1.54163 5.56738 1.54163 8.21828C1.54163 9.98978 2.48268 11.734 3.65513 13.2367C4.83943 14.7545 6.32939 16.1137 7.57309 17.1279L7.68535 17.2195C8.68523 18.0361 9.40789 18.6262 10.5 18.6262C11.592 18.6262 12.3147 18.0361 13.3146 17.2195L13.4268 17.1279C14.6705 16.1137 16.1605 14.7545 17.3448 13.2367C18.5172 11.734 19.4583 9.98978 19.4583 8.21825ZM10.9575 5.5093C12.7059 3.63023 14.5225 3.32436 15.8328 3.86945C17.16 4.42162 18.2083 5.94329 18.2083 8.21825C18.2083 9.56968 17.4746 11.0384 16.3593 12.4677C15.2559 13.8819 13.8451 15.1739 12.6369 16.1592C11.476 17.1058 11.1013 17.3762 10.5 17.3762C9.89867 17.3762 9.52391 17.1058 8.36305 16.1591C7.15483 15.1739 5.74407 13.8819 4.64063 12.4677C3.52534 11.0383 2.79163 9.56967 2.79163 8.21828C2.79163 5.94339 3.83988 4.4217 5.16716 3.86951C6.47743 3.3244 8.294 3.63024 10.0424 5.5093C10.1606 5.63637 10.3264 5.70855 10.5 5.70855C10.6735 5.70855 10.8393 5.63637 10.9575 5.5093Z" fill="white"/>
</g>
</g>
</svg>
