<svg width="23" height="23" viewBox="0 0 23 23" fill="none" xmlns="http://www.w3.org/2000/svg">
<g id="Layer_1" clipPath="url(#clip0_1542_71608)">
<path id="Vector" d="M7.60033 3.2396L9.34493 1.51363C9.62421 1.22597 9.66284 0.801921 9.37518 0.520775C9.08752 0.239629 8.66487 0.288039 8.38373 0.573839L6.68242 2.36312L1.48449 1.32325C1.1284 1.26693 0.895661 1.69563 1.14934 1.9521L1.16098 1.96328L4.54823 4.59087L2.21714 7.32832C2.19463 7.35389 2.16631 7.37366 2.13455 7.38598C2.10279 7.39829 2.06853 7.40278 2.03467 7.39907L0.695508 7.25384C0.584725 7.2422 0.499544 7.37766 0.576347 7.4526C0.577547 7.45356 0.57864 7.45466 0.579606 7.45586L1.56176 8.09728C1.7331 8.20914 1.88068 8.35371 1.99604 8.52272L2.65143 9.4802C2.72823 9.55514 2.86461 9.47042 2.85065 9.35964L2.6747 8.00604C2.67032 7.97231 2.67408 7.93802 2.68566 7.90603C2.69724 7.87405 2.7163 7.8453 2.74126 7.82218L5.46102 5.43524L8.12911 8.77501L8.13516 8.78059C8.39723 9.02822 8.82453 8.78943 8.75983 8.43428L7.60033 3.2396Z" fill="white"/>
<path id="Vector_2" d="M3.93365 17.6357C3.60432 17.6357 3.28237 17.7332 3.0085 17.9161C2.73463 18.099 2.52115 18.359 2.39506 18.6633C2.26897 18.9675 2.23593 19.3023 2.30012 19.6253C2.36432 19.9483 2.52285 20.245 2.75569 20.4779C2.98852 20.7108 3.2852 20.8694 3.60819 20.9337C3.93118 20.998 4.26598 20.965 4.57024 20.839C4.87451 20.713 5.13457 20.4996 5.31755 20.2258C5.50052 19.952 5.59818 19.6301 5.59818 19.3007C5.59818 18.8592 5.42283 18.4358 5.11068 18.1236C4.79854 17.8113 4.37515 17.6359 3.93365 17.6357Z" fill="white"/>
<path id="Vector_3" d="M19.2066 5.70499C19.5359 5.70499 19.8578 5.60734 20.1316 5.42439C20.4054 5.24144 20.6189 4.9814 20.7449 4.67716C20.8709 4.37293 20.9039 4.03815 20.8396 3.71517C20.7754 3.39219 20.6168 3.09552 20.384 2.86267C20.1511 2.62981 19.8544 2.47124 19.5314 2.40699C19.2085 2.34275 18.8737 2.37572 18.5695 2.50174C18.2652 2.62776 18.0052 2.84117 17.8222 3.11497C17.6393 3.38878 17.5416 3.71069 17.5416 4.04C17.5416 4.25866 17.5846 4.4752 17.6682 4.67724C17.7519 4.87927 17.8745 5.06284 18.0292 5.21746C18.1838 5.37208 18.3673 5.49472 18.5694 5.57838C18.7714 5.66203 18.988 5.70505 19.2066 5.70499Z" fill="white"/>
<path id="Vector_4" d="M1.11383 14.4007C1.22767 14.3756 1.32755 14.3078 1.39293 14.2113C1.45831 14.1147 1.48421 13.9968 1.4653 13.8818C1.4464 13.7668 1.38413 13.6634 1.2913 13.5928C1.19847 13.5223 1.08214 13.4901 0.966255 13.5027C0.850365 13.5153 0.743723 13.5719 0.668268 13.6607C0.592814 13.7496 0.554285 13.864 0.560608 13.9804C0.566931 14.0968 0.617627 14.2064 0.702264 14.2865C0.786901 14.3667 0.899041 14.4114 1.01562 14.4114C1.04865 14.4115 1.08159 14.4079 1.11383 14.4007Z" fill="white"/>
<path id="Vector_5" d="M1.00095 9.80504C1.11751 9.80522 1.22968 9.76064 1.31432 9.6805C1.39895 9.60036 1.44959 9.49079 1.45577 9.3744C1.46195 9.25801 1.42321 9.14368 1.34754 9.05503C1.27187 8.96638 1.16505 8.91017 1.04913 8.898C0.933217 8.88582 0.81705 8.91862 0.724616 8.98963C0.632183 9.06063 0.570539 9.16441 0.552411 9.27954C0.534283 9.39468 0.561054 9.51238 0.627198 9.60835C0.693342 9.70432 0.79381 9.77123 0.907859 9.79527C0.9385 9.80154 0.969679 9.80482 1.00095 9.80504Z" fill="white"/>
<path id="Vector_6" d="M0.757026 11.3374H0.788678C0.909329 11.3333 1.02352 11.2819 1.10666 11.1944C1.18979 11.1068 1.23521 10.9901 1.23314 10.8694C1.23106 10.7487 1.18166 10.6337 1.09556 10.549C1.00947 10.4644 0.893576 10.417 0.772853 10.417C0.652131 10.417 0.536239 10.4644 0.450145 10.549C0.36405 10.6337 0.314644 10.7487 0.312568 10.8694C0.310493 10.9901 0.355916 11.1068 0.43905 11.1944C0.522184 11.2819 0.636375 11.3333 0.757026 11.3374Z" fill="white"/>
<path id="Vector_7" d="M0.826213 12.8886C0.948111 12.8842 1.06339 12.8321 1.14725 12.7435C1.23111 12.6549 1.27685 12.5369 1.27462 12.415C1.27239 12.293 1.22238 12.1768 1.13534 12.0914C1.04831 12.0059 0.931203 11.958 0.809224 11.958C0.687244 11.958 0.570139 12.0059 0.483103 12.0914C0.396067 12.1768 0.346054 12.293 0.343828 12.415C0.341601 12.5369 0.387337 12.6549 0.471196 12.7435C0.555055 12.8321 0.670336 12.8842 0.792235 12.8886H0.826213Z" fill="white"/>
<path id="Vector_8" d="M1.88277 15.2768C1.85114 15.192 1.79505 15.1185 1.72163 15.0656C1.6482 15.0128 1.56073 14.9829 1.4703 14.9798C1.37987 14.9766 1.29055 15.0004 1.21365 15.0481C1.13676 15.0958 1.07574 15.1652 1.03833 15.2476C1.00092 15.33 0.988807 15.4216 1.00352 15.5109C1.01823 15.6002 1.05911 15.6831 1.12098 15.7491C1.18285 15.8152 1.26292 15.8613 1.35105 15.8818C1.43918 15.9023 1.53141 15.8962 1.61606 15.8642C1.67214 15.8431 1.72353 15.8112 1.76729 15.7703C1.81105 15.7294 1.84632 15.6803 1.87109 15.6257C1.89585 15.5712 1.90963 15.5123 1.91164 15.4524C1.91364 15.3925 1.90383 15.3328 1.88277 15.2768Z" fill="white"/>
<path id="Vector_9" d="M13.7772 1.4636C13.8094 1.4636 13.8415 1.48222 13.8731 1.48222C13.9767 1.48353 14.0776 1.44904 14.1586 1.38459C14.2397 1.32013 14.296 1.22966 14.3181 1.12846C14.3444 1.01032 14.3226 0.886596 14.2576 0.784507C14.1926 0.682418 14.0897 0.610327 13.9716 0.584093C13.8534 0.55786 13.7297 0.579633 13.6276 0.644623C13.5255 0.709613 13.4534 0.812496 13.4272 0.930638C13.4143 0.988675 13.4132 1.04871 13.4239 1.10719C13.4346 1.16567 13.457 1.2214 13.4896 1.2711C13.5222 1.32079 13.5645 1.36343 13.6139 1.3965C13.6633 1.42956 13.7189 1.45238 13.7772 1.4636Z" fill="white"/>
<path id="Vector_10" d="M15.1991 1.90343C15.2836 1.93479 15.3755 1.94039 15.4631 1.91953C15.5508 1.89866 15.6303 1.85228 15.6916 1.78623C15.7529 1.72019 15.7933 1.63744 15.8076 1.54847C15.8219 1.45949 15.8095 1.36827 15.7719 1.28635C15.7344 1.20443 15.6734 1.13547 15.5966 1.08821C15.5199 1.04095 15.4309 1.01749 15.3408 1.02082C15.2508 1.02414 15.1637 1.05409 15.0907 1.10688C15.0177 1.15967 14.9619 1.23293 14.9305 1.3174C14.9092 1.37348 14.8993 1.43323 14.9013 1.49318C14.9032 1.55314 14.9171 1.6121 14.9421 1.66663C14.9671 1.72117 15.0027 1.77019 15.0468 1.81084C15.0909 1.85149 15.1427 1.88297 15.1991 1.90343Z" fill="white"/>
<path id="Vector_11" d="M16.5446 2.495C16.6089 2.53892 16.685 2.56259 16.7629 2.56296C16.8423 2.56197 16.9202 2.54011 16.9885 2.49956C17.0569 2.45902 17.1134 2.40121 17.1524 2.33195C17.1913 2.26268 17.2114 2.18438 17.2106 2.10491C17.2098 2.02544 17.1881 1.94757 17.1476 1.87913C17.1072 1.81069 17.0495 1.75407 16.9804 1.71496C16.9112 1.67584 16.8329 1.6556 16.7534 1.65627C16.674 1.65693 16.5961 1.67848 16.5275 1.71874C16.459 1.75901 16.4023 1.81659 16.363 1.88569C16.242 2.10679 16.3249 2.4019 16.5446 2.495Z" fill="white"/>
<path id="Vector_12" d="M12.3712 0.364782C12.252 0.359066 12.1353 0.400308 12.0461 0.479659C11.9569 0.55901 11.9024 0.670148 11.8943 0.789229C11.8861 0.90831 11.9249 1.02585 12.0024 1.11662C12.0799 1.2074 12.1899 1.26418 12.3088 1.27478H12.3405C12.459 1.27521 12.573 1.22948 12.6583 1.14728C12.7436 1.06508 12.7936 0.952871 12.7976 0.834454C12.8016 0.716038 12.7593 0.600721 12.6797 0.512954C12.6001 0.425188 12.4894 0.371874 12.3712 0.364316V0.364782Z" fill="white"/>
<path id="Vector_13" d="M10.7618 0.375C10.6445 0.384167 10.5353 0.438294 10.457 0.526078C10.3787 0.613861 10.3373 0.728511 10.3415 0.846083C10.3457 0.963655 10.3952 1.07506 10.4796 1.15702C10.5639 1.23898 10.6767 1.28517 10.7944 1.28593H10.8279C10.946 1.27385 11.0546 1.21626 11.1309 1.12536C11.2072 1.03446 11.245 0.917421 11.2364 0.799073C11.2278 0.680725 11.1735 0.570386 11.0849 0.491471C10.9962 0.412557 10.8804 0.371279 10.7618 0.376396V0.375Z" fill="white"/>
<path id="Vector_14" d="M2.50287 16.6228C2.4594 16.5435 2.39339 16.479 2.3132 16.4373C2.23301 16.3956 2.14225 16.3786 2.0524 16.3885C1.96256 16.3984 1.87768 16.4348 1.80851 16.493C1.73935 16.5512 1.68901 16.6286 1.66388 16.7154C1.63875 16.8022 1.63995 16.8946 1.66733 16.9807C1.69471 17.0668 1.74704 17.1429 1.8177 17.1993C1.88835 17.2557 1.97414 17.2898 2.06422 17.2974C2.15429 17.305 2.24458 17.2856 2.32366 17.2419C2.42944 17.1835 2.50771 17.0855 2.54131 16.9694C2.57491 16.8533 2.56108 16.7287 2.50287 16.6228Z" fill="white"/>
<path id="Vector_15" d="M22.5242 15.8746L21.5425 15.2327C21.3711 15.1208 21.2234 14.9762 21.1078 14.8073L20.4524 13.8517C20.3756 13.7767 20.2387 13.8614 20.2532 13.9722L20.4291 15.3263C20.4334 15.3599 20.4296 15.3941 20.418 15.426C20.4064 15.4579 20.3874 15.4866 20.3625 15.5097L17.6423 17.8966L14.9747 14.5569L14.9691 14.5513C14.707 14.3032 14.2797 14.5424 14.3444 14.8971L15.5016 20.089L13.757 21.8178C13.4777 22.105 13.4396 22.529 13.7268 22.8102C14.014 23.0913 14.4375 23.0429 14.7187 22.7571L16.4177 20.9692L21.6156 22.0068C21.9717 22.0631 22.2044 21.6344 21.9507 21.3779L21.9396 21.3667L18.5556 18.7391L20.8862 16.0017C20.9087 15.9762 20.9371 15.9564 20.9688 15.9441C21.0006 15.9318 21.0348 15.9273 21.0687 15.9309L22.4074 16.0762C22.5186 16.0878 22.6033 15.9528 22.5265 15.8779L22.5242 15.8746Z" fill="white"/>
<path id="Vector_16" d="M21.9897 8.92724C21.875 8.9519 21.7741 9.01958 21.7078 9.11634C21.6415 9.21311 21.6148 9.3316 21.6332 9.44745C21.6517 9.5633 21.7138 9.66768 21.8068 9.73912C21.8998 9.81057 22.0167 9.84364 22.1334 9.83153C22.2501 9.81942 22.3577 9.76306 22.434 9.67403C22.5104 9.58501 22.5498 9.4701 22.544 9.35294C22.5382 9.23578 22.4878 9.12529 22.403 9.0442C22.3183 8.96311 22.2056 8.91759 22.0884 8.917C22.0552 8.91677 22.0221 8.9202 21.9897 8.92724Z" fill="white"/>
<path id="Vector_17" d="M22.1967 13.5305C22.1086 13.5117 22.0168 13.5195 21.9331 13.5528C21.8494 13.5861 21.7774 13.6435 21.7263 13.7177C21.6751 13.792 21.6472 13.8797 21.6459 13.9698C21.6447 14.0599 21.6701 14.1484 21.7191 14.224C21.7682 14.2997 21.8385 14.3591 21.9213 14.3947C22.004 14.4304 22.0955 14.4407 22.1842 14.4244C22.2728 14.408 22.3546 14.3658 22.4192 14.303C22.4838 14.2401 22.5284 14.1596 22.5472 14.0714C22.5599 14.0129 22.5609 13.9524 22.5501 13.8935C22.5394 13.8346 22.5171 13.7783 22.4845 13.7281C22.4519 13.6778 22.4097 13.6345 22.3603 13.6006C22.3109 13.5667 22.2553 13.5429 22.1967 13.5305Z" fill="white"/>
<path id="Vector_18" d="M22.3464 12C22.3357 12 22.3255 12 22.3147 12C22.194 12.0042 22.0797 12.0556 21.9964 12.1432C21.9132 12.2308 21.8677 12.3476 21.8698 12.4685C21.8719 12.5893 21.9214 12.7045 22.0075 12.7892C22.0937 12.8739 22.2097 12.9214 22.3306 12.9214C22.4514 12.9214 22.5674 12.8739 22.6536 12.7892C22.7398 12.7045 22.7892 12.5893 22.7913 12.4685C22.7934 12.3476 22.7479 12.2308 22.6647 12.1432C22.5815 12.0556 22.4672 12.0042 22.3464 12Z" fill="white"/>
<path id="Vector_19" d="M22.2765 10.4489C22.156 10.4535 22.0421 10.5051 21.9592 10.5927C21.8764 10.6804 21.8312 10.797 21.8335 10.9176C21.8357 11.0382 21.8852 11.153 21.9713 11.2375C22.0573 11.322 22.1731 11.3693 22.2937 11.3693C22.4143 11.3693 22.5301 11.322 22.6162 11.2375C22.7023 11.153 22.7517 11.0382 22.754 10.9176C22.7563 10.797 22.7111 10.6804 22.6283 10.5927C22.5454 10.5051 22.4315 10.4535 22.311 10.4489C22.2993 10.448 22.2881 10.448 22.2765 10.4489Z" fill="white"/>
<path id="Vector_20" d="M21.2221 8.05513C21.2539 8.13985 21.3101 8.21323 21.3836 8.26598C21.4571 8.31872 21.5447 8.34847 21.6351 8.35144C21.7255 8.35441 21.8148 8.33048 21.8916 8.28268C21.9684 8.23487 22.0293 8.16534 22.0666 8.0829C22.1039 8.00045 22.1159 7.9088 22.101 7.81955C22.0861 7.73029 22.0451 7.64746 21.9832 7.58153C21.9212 7.5156 21.8411 7.46955 21.7529 7.44921C21.6647 7.42886 21.5725 7.43514 21.4879 7.46724C21.4319 7.48839 21.3805 7.52037 21.3368 7.56136C21.2931 7.60235 21.2579 7.65154 21.2333 7.70613C21.2086 7.76073 21.1949 7.81965 21.193 7.87953C21.1911 7.93941 21.201 7.99908 21.2221 8.05513Z" fill="white"/>
<path id="Vector_21" d="M9.32799 21.8601C9.29541 21.8601 9.26375 21.8438 9.23164 21.8438C9.1279 21.8429 9.02702 21.8778 8.94598 21.9425C8.86494 22.0073 8.80867 22.098 8.78665 22.1994C8.76066 22.3176 8.78269 22.4413 8.8479 22.5432C8.91311 22.6452 9.01615 22.7171 9.13435 22.7431C9.25256 22.769 9.37624 22.747 9.4782 22.6818C9.58016 22.6166 9.65204 22.5136 9.67802 22.3954C9.69094 22.3372 9.69209 22.277 9.6814 22.2184C9.67071 22.1597 9.6484 22.1038 9.61578 22.054C9.58317 22.0041 9.5409 21.9612 9.49148 21.9279C9.44205 21.8946 9.38647 21.8716 9.32799 21.8601Z" fill="white"/>
<path id="Vector_22" d="M7.90546 21.4351C7.85463 21.4163 7.80091 21.4066 7.74673 21.4063C7.63263 21.406 7.52258 21.4485 7.43822 21.5253C7.35387 21.6021 7.30133 21.7077 7.29096 21.8214C7.28058 21.935 7.31312 22.0484 7.38216 22.1392C7.45121 22.23 7.55175 22.2917 7.66401 22.3121C7.77627 22.3326 7.89209 22.3102 7.98869 22.2495C8.08529 22.1888 8.15566 22.0941 8.18595 21.9841C8.21623 21.8741 8.20423 21.7567 8.15232 21.6551C8.10041 21.5535 8.01234 21.475 7.90546 21.4351Z" fill="white"/>
<path id="Vector_23" d="M6.55968 20.8264C6.49498 20.7831 6.41876 20.7602 6.3409 20.7608C6.26113 20.7615 6.18294 20.7832 6.11422 20.8237C6.04549 20.8642 5.98864 20.9221 5.9494 20.9915C5.91015 21.061 5.88989 21.1396 5.89065 21.2194C5.8914 21.2991 5.91316 21.3773 5.95372 21.446C5.99428 21.5147 6.05221 21.5715 6.12169 21.6107C6.19118 21.6499 6.26976 21.6701 6.34954 21.6693C6.42931 21.6685 6.50747 21.6467 6.57614 21.6061C6.64482 21.5655 6.70158 21.5075 6.74074 21.438C6.86223 21.2169 6.78078 20.966 6.55968 20.8264Z" fill="white"/>
<path id="Vector_24" d="M10.7928 22.0518H10.7607C10.6418 22.056 10.5293 22.1067 10.4474 22.193C10.3655 22.2794 10.3208 22.3944 10.3229 22.5133C10.3251 22.6323 10.3738 22.7457 10.4587 22.829C10.5435 22.9124 10.6577 22.9591 10.7767 22.9591C10.8957 22.9591 11.0099 22.9124 11.0948 22.829C11.1796 22.7457 11.2284 22.6323 11.2305 22.5133C11.2326 22.3944 11.1879 22.2794 11.106 22.193C11.0242 22.1067 10.9117 22.056 10.7928 22.0518Z" fill="white"/>
<path id="Vector_25" d="M12.3084 22.0518H12.2753C12.1566 22.0561 12.0443 22.1069 11.9626 22.1931C11.881 22.2794 11.8364 22.3943 11.8386 22.5131C11.8407 22.6319 11.8895 22.7451 11.9742 22.8283C12.059 22.9116 12.1731 22.9582 12.2919 22.9582C12.4107 22.9582 12.5247 22.9116 12.6095 22.8283C12.6943 22.7451 12.743 22.6319 12.7452 22.5131C12.7473 22.3943 12.7028 22.2794 12.6211 22.1931C12.5394 22.1069 12.4271 22.0561 12.3084 22.0518Z" fill="white"/>
<path id="Vector_26" d="M20.6009 6.70718C20.6444 6.78627 20.7104 6.85069 20.7905 6.89227C20.8706 6.93386 20.9612 6.95075 21.0509 6.9408C21.1406 6.93085 21.2254 6.89451 21.2944 6.83638C21.3635 6.77826 21.4137 6.70095 21.4388 6.61425C21.4639 6.52756 21.4627 6.43536 21.4354 6.34934C21.4081 6.26331 21.3559 6.18733 21.2853 6.131C21.2148 6.07467 21.1292 6.04052 21.0392 6.03289C20.9493 6.02525 20.8591 6.04447 20.7801 6.0881C20.7277 6.11698 20.6815 6.1559 20.6441 6.20264C20.6067 6.24939 20.5789 6.30303 20.5623 6.36052C20.5456 6.41801 20.5405 6.47821 20.5471 6.53769C20.5537 6.59717 20.572 6.65476 20.6009 6.70718Z" fill="white"/>
</g>
<defs>
<clipPath id="clip0_1542_71608">
<rect width="22.439" height="22.6667" fill="white" transform="translate(0.333374 0.333008)"/>
</clipPath>
</defs>
</svg>
