<svg width="26" height="26" viewBox="0 0 26 26" fill="none" xmlns="http://www.w3.org/2000/svg">
<g id="Bold / Map &#38; Location / Map Point Wave">
<path id="Vector" d="M12.8999 23.0575C18.5781 23.0575 23.1812 20.9862 23.1812 18.431C23.1812 17.1287 21.9855 15.9521 20.0613 15.1113C18.8871 17.2661 17.0965 19.1234 14.822 20.0954C13.5995 20.6178 12.2004 20.6178 10.9778 20.0954C8.70339 19.1234 6.91279 17.2661 5.73859 15.1113C3.81431 15.9521 2.61865 17.1287 2.61865 18.431C2.61865 20.9862 7.22173 23.0575 12.8999 23.0575Z" fill="#066651"/>
<path id="Vector_2" fill-rule="evenodd" clip-rule="evenodd" d="M5.70312 9.19201C5.70312 5.49288 8.92528 2.49414 12.9 2.49414C16.8747 2.49414 20.0969 5.49288 20.0969 9.19201C20.0969 12.8622 17.7999 17.1449 14.2161 18.6764C13.3806 19.0334 12.4194 19.0334 11.5839 18.6764C8.00012 17.1449 5.70312 12.8622 5.70312 9.19201ZM12.9 11.7473C14.0357 11.7473 14.9563 10.8267 14.9563 9.69103C14.9563 8.55539 14.0357 7.63478 12.9 7.63478C11.7644 7.63478 10.8438 8.55539 10.8438 9.69103C10.8438 10.8267 11.7644 11.7473 12.9 11.7473Z" fill="#066651"/>
</g>
</svg>
