<svg width="22" height="26" viewBox="0 0 22 26" fill="none" xmlns="http://www.w3.org/2000/svg">
<g id="Layer_1" clipPath="url(#clip0_1574_98841)">
<path id="Vector" d="M5.73962 25.8719C5.35544 25.6346 5.30074 25.4936 5.36862 25.0435C5.46812 24.3845 5.55313 23.7216 5.64407 23.0607C5.58805 22.9486 5.62232 22.8353 5.64011 22.7233C6.02056 20.3861 6.39508 18.048 6.76367 15.7091C6.79105 15.5555 6.838 15.406 6.90337 15.2643C7.15049 14.7918 7.53138 14.5513 8.07635 14.5592C8.80847 14.5697 9.5406 14.5651 10.2727 14.5592C11.4951 14.5526 12.703 14.4274 13.876 14.067C15.731 13.4963 17.1775 12.403 18.1514 10.7114C18.6938 9.76911 19.0411 8.75626 19.2658 7.69794C19.3033 7.52068 19.3317 7.34275 19.3765 7.16681C19.3835 7.14066 19.3962 7.11637 19.4136 7.09565C19.431 7.07493 19.4528 7.05828 19.4773 7.04688C20.6845 7.66697 21.3844 8.68245 21.5287 9.99645C21.7883 12.3582 21.2249 14.5361 19.735 16.4175C18.7267 17.6907 17.3343 18.3483 15.7659 18.6706C14.8768 18.8472 13.9698 18.9169 13.0641 18.8781C12.216 18.8478 11.9096 19.3355 11.8121 19.9239C11.5445 21.5846 11.279 23.2458 11.0312 24.9097C10.9567 25.4086 10.676 25.7005 10.2312 25.8705L5.73962 25.8719Z" fill="#009AD8"/>
<path id="Vector_2" d="M6.96291 15.2671C6.74347 15.9399 6.69931 16.645 6.58202 17.3362C6.34479 18.7287 6.12601 20.1244 5.90393 21.5201C5.82222 22.0354 5.75698 22.554 5.64034 23.0641H0.895711C0.345465 23.0641 0.0739667 22.7557 0.160293 22.2153C0.595217 19.4753 1.03212 16.7357 1.471 13.9966C1.90812 11.2491 2.34282 8.50113 2.77511 5.75275C2.9906 4.39065 3.2041 3.02855 3.4242 1.6671C3.53228 1.00022 3.97708 0.627893 4.65056 0.627893C7.32666 0.627893 10.0028 0.618668 12.6782 0.633165C14.0337 0.640414 15.3695 0.795273 16.6406 1.31389C18.441 2.04931 19.5401 3.66116 19.5731 5.60382C19.5816 6.09015 19.5164 6.56988 19.4716 7.05357L19.4261 7.14913C18.7869 6.73529 18.0548 6.60613 17.3253 6.48422C16.5938 6.36791 15.8538 6.31368 15.1131 6.32211C13.2535 6.3287 11.3932 6.32211 9.53357 6.32211C9.44263 6.32211 9.35235 6.32211 9.26142 6.32211C8.69997 6.33858 8.3718 6.61601 8.28284 7.17021C8.08251 8.41128 7.88262 9.65214 7.68317 10.8928C7.47669 12.2063 7.26713 13.5208 7.0545 14.8361C7.03408 14.9824 6.96356 15.1168 6.96291 15.2671Z" fill="#0A3B81"/>
<path id="Vector_3" d="M6.96351 15.2631C6.89234 14.9745 7.01228 14.705 7.05248 14.4282C7.18427 13.5326 7.32727 12.6397 7.46961 11.7455C7.58691 11.0048 7.70948 10.2648 7.82941 9.52409C7.95593 8.7432 8.093 7.96429 8.20568 7.18142C8.29135 6.58835 8.6617 6.24568 9.26795 6.24502C11.4248 6.24502 13.5823 6.21998 15.7391 6.2549C16.9444 6.27467 18.1391 6.44139 19.2613 6.93563C19.3622 6.97978 19.4353 7.02393 19.4313 7.14255C19.1467 8.90531 18.5595 10.5389 17.3767 11.9142C16.1938 13.2895 14.6478 14.0348 12.889 14.3827C11.9928 14.5523 11.0822 14.6335 10.1701 14.6252C9.48739 14.6252 8.80404 14.6391 8.122 14.6206C7.59745 14.6068 7.21986 14.8157 6.96351 15.2631Z" fill="#192A67"/>
</g>
<defs>
<clipPath id="clip0_1574_98841">
<rect width="21.4391" height="25.25" fill="white" transform="translate(0.148438 0.625)"/>
</clipPath>
</defs>
</svg>
