<svg width="20" height="21" viewBox="0 0 20 21" fill="none" xmlns="http://www.w3.org/2000/svg">
<g id="Linear / Map &#38; Location / Point On Map">
<path id="Vector" d="M15 7.00195L15.7906 7.26548C16.6156 7.54048 17.0281 7.67799 17.2641 8.00535C17.5 8.33271 17.5 8.76753 17.5 9.63718V14.3594C17.5 15.4352 17.5 15.9731 17.2169 16.3186C17.1207 16.4359 17.004 16.5348 16.8725 16.6104C16.4851 16.8328 15.9546 16.7444 14.8934 16.5675C13.8464 16.393 13.3229 16.3058 12.804 16.3492C12.6219 16.3644 12.441 16.3916 12.2625 16.4306C11.7538 16.5417 11.2749 16.7811 10.3172 17.26C9.06742 17.8849 8.44253 18.1974 7.77736 18.2937C7.57702 18.3227 7.37483 18.337 7.1724 18.3367C6.50029 18.3354 5.84322 18.1164 4.52907 17.6783L4.20943 17.5718C3.38441 17.2968 2.97189 17.1593 2.73595 16.8319C2.5 16.5045 2.5 16.0697 2.5 15.2001V11.092C2.5 9.70955 2.5 9.01834 2.90701 8.6466C2.97823 8.58155 3.05674 8.52497 3.14097 8.47797C3.62235 8.2094 4.27808 8.42798 5.58955 8.86514" stroke="#FFC900" stroke-width="1.25"/>
<path id="Vector_2" d="M5 6.75221C5 4.12871 7.23858 2.00195 10 2.00195C12.7614 2.00195 15 4.12871 15 6.75221C15 9.35514 13.4042 12.3925 10.9143 13.4787C10.3339 13.7319 9.66609 13.7319 9.08567 13.4787C6.59583 12.3925 5 9.35514 5 6.75221Z" stroke="#FFC900" stroke-width="1.25"/>
<circle id="Vector_3" cx="9.99992" cy="7.0026" r="1.66667" stroke="#FFC900" stroke-width="1.25"/>
</g>
</svg>
