<svg width="21" height="21" viewBox="0 0 21 21" fill="none" xmlns="http://www.w3.org/2000/svg">
<g id="Outline / Map &#38; Location / Routing">
<path id="Vector" fillRule="evenodd" clipRule="evenodd" d="M5.50004 3.625C4.92474 3.625 4.45837 4.09137 4.45837 4.66667C4.45837 5.24196 4.92474 5.70833 5.50004 5.70833C6.07534 5.70833 6.54171 5.24196 6.54171 4.66667C6.54171 4.09137 6.07534 3.625 5.50004 3.625ZM3.20837 4.66667C3.20837 3.40101 4.23439 2.375 5.50004 2.375C6.54902 2.375 7.43339 3.07979 7.70544 4.04167H14.25C16.206 4.04167 17.7917 5.62733 17.7917 7.58333C17.7917 9.53934 16.206 11.125 14.25 11.125H6.75004C5.48439 11.125 4.45837 12.151 4.45837 13.4167C4.45837 14.6823 5.48439 15.7083 6.75004 15.7083H15.6578L15.0581 15.1086C14.814 14.8645 14.814 14.4688 15.0581 14.2247C15.3022 13.9806 15.6979 13.9806 15.942 14.2247L17.6086 15.8914C17.8527 16.1355 17.8527 16.5312 17.6086 16.7753L15.942 18.4419C15.6979 18.686 15.3022 18.686 15.0581 18.4419C14.814 18.1979 14.814 17.8021 15.0581 17.5581L15.6578 16.9583H6.75004C4.79403 16.9583 3.20837 15.3727 3.20837 13.4167C3.20837 11.4607 4.79403 9.875 6.75004 9.875H14.25C15.5157 9.875 16.5417 8.84899 16.5417 7.58333C16.5417 6.31768 15.5157 5.29167 14.25 5.29167H7.70544C7.43339 6.25354 6.54902 6.95833 5.50004 6.95833C4.23439 6.95833 3.20837 5.93232 3.20837 4.66667Z" fill="white"/>
</g>
</svg>
