<svg width="18" height="18" viewBox="0 0 18 18" fill="none" xmlns="http://www.w3.org/2000/svg">
<g id="Iconly/Sharp/Bold/Search">
<path id="Fill 187" fillRule="evenodd" clipRule="evenodd" d="M2.81433 7.93621C2.81433 5.02547 5.18283 2.65771 8.09358 2.65771C11.0036 2.65771 13.3721 5.02547 13.3721 7.93621C13.3721 10.847 11.0036 13.2155 8.09358 13.2155C5.18283 13.2155 2.81433 10.847 2.81433 7.93621ZM16.6856 15.7805L13.2363 12.3402C14.2533 11.1545 14.8721 9.61771 14.8721 7.93621C14.8721 4.19897 11.8308 1.15771 8.09358 1.15771C4.35558 1.15771 1.31433 4.19897 1.31433 7.93621C1.31433 11.6742 4.35558 14.7155 8.09358 14.7155C9.61008 14.7155 11.0073 14.2085 12.1376 13.3632L15.6266 16.8425L16.6856 15.7805Z" fill="black"/>
</g>
</svg>
