<svg width="25" height="25" viewBox="0 0 25 25" fill="none" xmlns="http://www.w3.org/2000/svg">
<g id="Bold / Home, Furniture / Sofa 2 ">
<g id="Vector">
<path d="M7.5625 13.1484V12.1484C7.5625 10.4939 6.22303 9.15212 4.56931 9.14845C4.57777 8.82043 4.59676 8.58223 4.63936 8.36808C4.95499 6.78131 6.19538 5.54092 7.78214 5.2253C8.16853 5.14844 8.63319 5.14844 9.5625 5.14844H11.8125V13.1484H7.5625Z" fill="#9C9C9C"/>
<path d="M13.3125 13.1484H17.5625V12.1484C17.5625 10.4939 18.902 9.15212 20.5557 9.14845C20.5472 8.82043 20.5282 8.58223 20.4856 8.36808C20.17 6.78131 18.9296 5.54092 17.3429 5.2253C16.9565 5.14844 16.4918 5.14844 15.5625 5.14844H13.3125V13.1484Z" fill="#9C9C9C"/>
</g>
<path id="Vector_2" d="M19.0069 18.1484H6.11806C5.84099 18.1484 5.57133 18.1167 5.3125 18.0568V19.1484C5.3125 19.5627 4.97671 19.8984 4.5625 19.8984C4.14829 19.8984 3.8125 19.5627 3.8125 19.1484V17.2997C3.04758 16.6475 2.5625 15.6769 2.5625 14.5929V12.1484C2.5625 11.0439 3.45793 10.1484 4.5625 10.1484C5.66707 10.1484 6.5625 11.0439 6.5625 12.1484V13.3484C6.5625 13.7903 6.92067 14.1484 7.3625 14.1484H17.7625C18.2043 14.1484 18.5625 13.7903 18.5625 13.3484V12.1484C18.5625 11.0439 19.4579 10.1484 20.5625 10.1484C21.6671 10.1484 22.5625 11.0439 22.5625 12.1484V14.5929C22.5625 15.6769 22.0774 16.6475 21.3125 17.2997V19.1484C21.3125 19.5627 20.9767 19.8984 20.5625 19.8984C20.1483 19.8984 19.8125 19.5627 19.8125 19.1484V18.0568C19.5537 18.1167 19.284 18.1484 19.0069 18.1484Z" fill="#9C9C9C"/>
</g>
</svg>
