<svg width="26" height="26" viewBox="0 0 26 26" fill="none" xmlns="http://www.w3.org/2000/svg">
<g id="Bold / Astronomy / Stars Minimalistic">
<path id="Vector" d="M10.9263 8.68173C12.0332 6.69599 12.5867 5.70313 13.4141 5.70312C14.2416 5.70312 14.7951 6.69599 15.902 8.68173L16.1884 9.19546C16.5029 9.75975 16.6602 10.0419 16.9054 10.2281C17.1507 10.4142 17.4561 10.4833 18.0669 10.6215L18.623 10.7473C20.7726 11.2337 21.8473 11.4769 22.103 12.2991C22.3587 13.1214 21.626 13.9782 20.1606 15.6918L19.7815 16.1352C19.3651 16.6221 19.1569 16.8656 19.0632 17.1668C18.9695 17.468 19.001 17.7929 19.064 18.4426L19.1213 19.0341C19.3428 21.3204 19.4536 22.4635 18.7842 22.9717C18.1147 23.4799 17.1084 23.0166 15.0958 22.0899L14.5751 21.8502C14.0032 21.5868 13.7172 21.4552 13.4141 21.4552C13.111 21.4552 12.825 21.5868 12.2531 21.8502L11.7324 22.0899C9.71984 23.0166 8.71353 23.4799 8.04409 22.9717C7.37466 22.4635 7.48543 21.3204 7.70698 19.0341L7.7643 18.4426C7.82726 17.7929 7.85874 17.468 7.76507 17.1668C7.6714 16.8656 7.46319 16.6221 7.04676 16.1352L6.66764 15.6918C5.20223 13.9782 4.46953 13.1214 4.72523 12.2991C4.98093 11.4769 6.0557 11.2337 8.20523 10.7473L8.76134 10.6215C9.37217 10.4833 9.67759 10.4142 9.92282 10.2281C10.168 10.0419 10.3253 9.75975 10.6399 9.19547L10.9263 8.68173Z" fill="#066651"/>
<path id="Star 7" d="M5.56598 3.1327C5.59681 3.02395 5.78986 3.02329 5.82142 3.13184C5.96557 3.62751 6.23286 4.36017 6.63704 4.76163C7.04122 5.1631 7.77567 5.42542 8.27231 5.56622C8.38106 5.59705 8.38172 5.7901 8.27317 5.82167C7.7775 5.96581 7.04484 6.2331 6.64338 6.63728C6.24191 7.04147 5.97958 7.77592 5.83879 8.27255C5.80796 8.38131 5.61491 8.38196 5.58334 8.27341C5.43919 7.77774 5.17191 7.04508 4.76773 6.64362C4.36354 6.24216 3.62909 5.97983 3.13246 5.83903C3.0237 5.8082 3.02305 5.61515 3.1316 5.58359C3.62727 5.43944 4.35993 5.17215 4.76139 4.76797C5.16285 4.36379 5.42518 3.62934 5.56598 3.1327Z" fill="#066651"/>
<path id="Vector (Stroke)" fillRule="evenodd" clipRule="evenodd" d="M20.0968 3.9043C20.5227 3.9043 20.8679 4.24953 20.8679 4.67539V4.93242H21.125C21.5508 4.93242 21.8961 5.27765 21.8961 5.70352C21.8961 6.12938 21.5508 6.47461 21.125 6.47461H20.8679V6.73165C20.8679 7.15751 20.5227 7.50274 20.0968 7.50274C19.671 7.50274 19.3257 7.15751 19.3257 6.73165V6.47461H19.0687C18.6428 6.47461 18.2976 6.12938 18.2976 5.70352C18.2976 5.27765 18.6428 4.93242 19.0687 4.93242H19.3257V4.67539C19.3257 4.24953 19.671 3.9043 20.0968 3.9043Z" fill="#066651"/>
</g>
</svg>
