<svg width="20" height="21" viewBox="0 0 20 21" fill="none" xmlns="http://www.w3.org/2000/svg">
<g id="Linear / Nature, Travel / Suitcase Tag">
<path id="Vector" d="M1.66589 12.1667C1.66589 9.02397 1.66589 7.45262 2.6422 6.47631C3.61852 5.5 5.18986 5.5 8.33256 5.5H11.6659C14.8086 5.5 16.3799 5.5 17.3562 6.47631C18.3326 7.45262 18.3326 9.02397 18.3326 12.1667C18.3326 15.3094 18.3326 16.8807 17.3562 17.857C16.3799 18.8333 14.8086 18.8333 11.6659 18.8333H8.33256C5.18986 18.8333 3.61852 18.8333 2.6422 17.857C1.66589 16.8807 1.66589 15.3094 1.66589 12.1667Z" stroke="white" strokeWidth="1.27811"/>
<path id="Vector_2" d="M13.3335 5.49984C13.3335 3.92849 13.3335 3.14281 12.8454 2.65466C12.3572 2.1665 11.5716 2.1665 10.0002 2.1665C8.42886 2.1665 7.64318 2.1665 7.15503 2.65466C6.66687 3.14281 6.66687 3.92849 6.66687 5.49984" stroke="white" strokeWidth="1.27811"/>
<path id="Vector_3" d="M8.3339 13H5.00057C4.60773 13 4.41131 13 4.28928 13.122C4.16724 13.2441 4.16724 13.4405 4.16724 13.8333V14.6667C4.16724 15.0595 4.16724 15.2559 4.28928 15.378C4.41131 15.5 4.60773 15.5 5.00057 15.5H8.3339C8.72674 15.5 8.92316 15.5 9.0452 15.378C9.16724 15.2559 9.16724 15.0595 9.16724 14.6667V13.8333C9.16724 13.4405 9.16724 13.2441 9.0452 13.122C8.92316 13 8.72674 13 8.3339 13Z" stroke="white" strokeWidth="1.27811" strokeLinejoin="round"/>
<path id="Vector_4" d="M4.99927 5.91699V13.0003M4.99927 18.417V15.917" stroke="white" strokeWidth="1.27811" strokeLinecap="round"/>
<path id="Vector_5" d="M14.9995 5.91699V18.417" stroke="white" strokeWidth="1.27811" strokeLinecap="round"/>
</g>
</svg>
