<svg width="25" height="25" viewBox="0 0 25 25" fill="none" xmlns="http://www.w3.org/2000/svg">
<g id="Bold / Money / Ticket">
<path id="Vector" fill-rule="evenodd" clip-rule="evenodd" d="M14.5704 19.0888L14.5763 17.0859C14.5763 16.5337 15.0251 16.0859 15.5787 16.0859C16.1324 16.0859 16.5812 16.5337 16.5812 17.0859V19.0624C16.5812 19.544 16.5812 19.7847 16.7356 19.9324C16.8901 20.08 17.1263 20.07 17.5987 20.05C19.4617 19.9711 20.6062 19.7191 21.413 18.9144C22.2216 18.1077 22.4735 16.9625 22.552 15.0965C22.5675 14.7264 22.5753 14.5414 22.5062 14.4179C22.4371 14.2945 22.1612 14.1404 21.6095 13.8323C20.9967 13.4901 20.5825 12.8363 20.5825 12.0859C20.5825 11.3356 20.9967 10.6818 21.6095 10.3396C22.1612 10.0315 22.4371 9.87741 22.5062 9.75396C22.5753 9.63051 22.5675 9.44548 22.552 9.07541C22.4735 7.20933 22.2216 6.06417 21.413 5.25751C20.5353 4.38198 19.2578 4.16074 17.0903 4.10484C16.8107 4.09763 16.5812 4.32312 16.5812 4.60212V7.08594C16.5812 7.63822 16.1324 8.08594 15.5787 8.08594C15.0251 8.08594 14.5763 7.63822 14.5763 7.08594L14.569 4.58449C14.5682 4.30891 14.344 4.08594 14.0677 4.08594H10.5576C6.77695 4.08594 4.88663 4.08594 3.71214 5.25751C2.90347 6.06417 2.65159 7.20933 2.57314 9.07541C2.55758 9.44548 2.5498 9.63051 2.61891 9.75396C2.68801 9.87741 2.96389 10.0315 3.51564 10.3396C4.12842 10.6818 4.54263 11.3356 4.54263 12.0859C4.54263 12.8363 4.12842 13.4901 3.51564 13.8323C2.96389 14.1404 2.68801 14.2945 2.61891 14.4179C2.5498 14.5414 2.55758 14.7264 2.57314 15.0965C2.65159 16.9625 2.90347 18.1077 3.71214 18.9144C4.88663 20.0859 6.77695 20.0859 10.5576 20.0859H13.568C14.0393 20.0859 14.2749 20.0859 14.4217 19.94C14.5684 19.7941 14.5691 19.559 14.5704 19.0888ZM16.5812 13.0859V11.0859C16.5812 10.5337 16.1324 10.0859 15.5787 10.0859C15.0251 10.0859 14.5763 10.5337 14.5763 11.0859V13.0859C14.5763 13.6382 15.0251 14.0859 15.5787 14.0859C16.1324 14.0859 16.5812 13.6382 16.5812 13.0859Z" fill="#066651"/>
</g>
</svg>
