<svg width="18" height="16" viewBox="0 0 18 16" fill="none" xmlns="http://www.w3.org/2000/svg">
<g id="Ticket Discount">
<g id="Vector">
<path d="M11.6561 6.22806C11.9001 5.98398 11.9001 5.58825 11.6561 5.34418C11.412 5.1001 11.0163 5.1001 10.7722 5.34418L6.05814 10.0582C5.81406 10.3023 5.81406 10.698 6.05814 10.9421C6.30222 11.1862 6.69795 11.1862 6.94202 10.9421L11.6561 6.22806Z" fill="#FFC900"/>
<path fill-rule="evenodd" clip-rule="evenodd" d="M4.37045 0.708496C1.97977 0.708496 0.041748 2.64652 0.041748 5.0372C0.041748 5.73031 0.439232 6.362 1.06409 6.66193L1.47023 6.85688C2.42942 7.31729 2.42942 8.68303 1.47023 9.14344L1.06409 9.33839C0.439232 9.63832 0.041748 10.27 0.041748 10.9631C0.041748 13.3538 1.97977 15.2918 4.37045 15.2918H13.6297C16.0204 15.2918 17.9584 13.3538 17.9584 10.9631C17.9584 10.27 17.5609 9.63832 16.9361 9.33839L16.5299 9.14344C15.5707 8.68303 15.5707 7.31729 16.5299 6.85688L16.9361 6.66193C17.5609 6.362 17.9584 5.73031 17.9584 5.0372C17.9584 2.64652 16.0204 0.708496 13.6297 0.708496H4.37045ZM1.29175 5.0372C1.29175 3.33688 2.67013 1.9585 4.37045 1.9585H13.6297C15.33 1.9585 16.7084 3.33688 16.7084 5.0372C16.7084 5.24957 16.5866 5.44313 16.3952 5.53503L15.989 5.72998C14.0844 6.6442 14.0844 9.35612 15.989 10.2703L16.3952 10.4653C16.5866 10.5572 16.7084 10.7508 16.7084 10.9631C16.7084 12.6634 15.33 14.0418 13.6297 14.0418H4.37045C2.67013 14.0418 1.29175 12.6634 1.29175 10.9631C1.29175 10.7508 1.41354 10.5572 1.605 10.4653L2.01114 10.2703C3.91578 9.35612 3.91578 6.6442 2.01114 5.72998L1.605 5.53503C1.41354 5.44313 1.29175 5.24957 1.29175 5.0372Z" fill="#FFC900"/>
<path d="M5.66675 5.50016C5.66675 5.9604 6.03984 6.3335 6.50008 6.3335C6.96032 6.3335 7.33342 5.9604 7.33342 5.50016C7.33342 5.03993 6.96032 4.66683 6.50008 4.66683C6.03984 4.66683 5.66675 5.03993 5.66675 5.50016Z" fill="#FFC900"/>
<path d="M10.6667 10.5002C10.6667 10.9604 11.0398 11.3335 11.5001 11.3335C11.9603 11.3335 12.3334 10.9604 12.3334 10.5002C12.3334 10.0399 11.9603 9.66683 11.5001 9.66683C11.0398 9.66683 10.6667 10.0399 10.6667 10.5002Z" fill="#FFC900"/>
</g>
</g>
</svg>
