<svg width="20" height="21" viewBox="0 0 20 21" fill="none" xmlns="http://www.w3.org/2000/svg">
<g id="Bold / Users / User Circle">
<path id="Vector" fillRule="evenodd" clipRule="evenodd" d="M18.3332 10.4993C18.3332 15.1017 14.6022 18.8327 9.99984 18.8327C5.39746 18.8327 1.6665 15.1017 1.6665 10.4993C1.6665 5.89698 5.39746 2.16602 9.99984 2.16602C14.6022 2.16602 18.3332 5.89698 18.3332 10.4993ZM12.4998 7.99935C12.4998 9.38006 11.3805 10.4993 9.99984 10.4993C8.61912 10.4993 7.49984 9.38006 7.49984 7.99935C7.49984 6.61864 8.61912 5.49935 9.99984 5.49935C11.3805 5.49935 12.4998 6.61864 12.4998 7.99935ZM9.99982 17.5827C11.4865 17.5827 12.8663 17.1247 14.0056 16.342C14.5088 15.9963 14.7239 15.3379 14.4313 14.802C13.8248 13.6912 12.575 12.9993 9.99978 12.9993C7.42458 12.9993 6.17481 13.6912 5.56829 14.802C5.27571 15.3378 5.49075 15.9963 5.99397 16.342C7.13332 17.1246 8.51308 17.5827 9.99982 17.5827Z" fill="#519CEC"/>
</g>
</svg>
