<svg width="51" height="50" viewBox="0 0 51 50" fill="none" xmlns="http://www.w3.org/2000/svg">
<g id="Truck">
<g clip-path="url(#clip0_1574_98851)">
<g id="Group 68127">
<path id="Vector" d="M19.5469 31.0048H22.5358L24.4568 19.1699H21.2548L19.5469 31.0048Z" fill="#1565C0"/>
<path id="Vector_2" d="M16.9838 18.961L14.2088 27.4146L13.6849 25.0335C12.1908 21.4404 9.62891 19.9611 9.62891 19.9611L12.2877 30.7959H15.4897L19.9727 18.9602H16.9838V18.961ZM40.891 18.961H37.689L32.7791 30.7966H35.7672L36.4073 29.1056H40.2494L40.6764 30.7966H43.2391L40.891 18.961ZM37.049 26.9918L38.7569 22.554L39.6109 26.9918H37.049ZM28.51 22.3423C28.51 21.7085 28.937 21.074 30.4311 21.074C31.4982 21.074 32.566 21.9195 32.566 21.9195L33.2061 19.3838C33.2061 19.3838 31.712 18.75 30.4311 18.75C27.2291 18.75 25.735 20.441 25.735 22.343C25.735 26.1471 30.0041 25.5133 30.0041 27.4154C30.0041 27.8381 29.791 28.4719 28.0831 28.4719C26.3751 28.4719 25.0949 27.8381 25.0949 27.8381L24.668 30.3739C24.668 30.3739 25.735 31.0076 27.87 31.0076C29.791 31.2186 32.7799 29.5284 32.7799 26.9918C32.7799 24.0333 28.51 23.8223 28.51 22.3423Z" fill="#1565C0"/>
<path id="Vector_3" d="M13.7836 25.5097L12.7165 20.2264C12.7165 20.2264 12.2895 19.1699 11.0086 19.1699C9.7276 19.1699 6.3125 19.1699 6.3125 19.1699C6.3125 19.1699 12.5026 21.0719 13.7836 25.5097Z" fill="#FF9800"/>
</g>
</g>
<rect x="0.476415" y="0.476415" width="49.5472" height="49.0472" rx="5.83608" stroke="#EEEEEE" stroke-width="0.95283"/>
</g>
<defs>
<clipPath id="clip0_1574_98851">
<rect width="50.5" height="50" rx="6.3125" fill="white"/>
</clipPath>
</defs>
</svg>
