<svg width="25" height="26" viewBox="0 0 25 26" fill="none" xmlns="http://www.w3.org/2000/svg">
<g id="Bold / Network, IT, Programming / Wi-Fi Router ">
<g id="Vector">
<path d="M12.4236 4.16133C10.3891 4.16133 8.64332 5.40569 7.90941 7.17784C7.74646 7.5713 7.29541 7.75817 6.90195 7.59522C6.50849 7.43228 6.32163 6.98122 6.48457 6.58776C7.44883 4.25941 9.74376 2.61914 12.4236 2.61914C15.1035 2.61914 17.3984 4.25941 18.3626 6.58776C18.5256 6.98122 18.3387 7.43228 17.9453 7.59522C17.5518 7.75817 17.1008 7.5713 16.9378 7.17784C16.2039 5.40569 14.4582 4.16133 12.4236 4.16133Z" fill="#066651"/>
<path d="M12.4244 6.73165C11.3733 6.73165 10.484 7.43329 10.2033 8.39536C10.084 8.80418 9.65589 9.03888 9.24708 8.91958C8.83827 8.80029 8.60357 8.37217 8.72286 7.96336C9.19038 6.36121 10.6695 5.18946 12.4244 5.18946C14.1792 5.18946 15.6583 6.36121 16.1259 7.96336C16.2452 8.37217 16.0104 8.80029 15.6016 8.91958C15.1928 9.03888 14.7647 8.80418 14.6454 8.39536C14.3647 7.43329 13.4754 6.73165 12.4244 6.73165Z" fill="#066651"/>
<path d="M13.4519 8.53087C13.4519 9.09869 12.9916 9.559 12.4238 9.559C11.8559 9.559 11.3956 9.09869 11.3956 8.53087C11.3956 7.96305 11.8559 7.50274 12.4238 7.50274C12.9916 7.50274 13.4519 7.96305 13.4519 8.53087Z" fill="#066651"/>
<path fillRule="evenodd" clipRule="evenodd" d="M3.75391 5.06405C3.54262 4.6943 3.07159 4.56584 2.70184 4.77712C2.33209 4.98841 2.20363 5.45944 2.41491 5.82919L6.30873 12.6434H6.16866C4.23001 12.6434 3.26068 12.6434 2.65842 13.2456C2.05615 13.8479 2.05615 14.8172 2.05615 16.7559C2.05615 18.6945 2.05615 19.6639 2.65842 20.2661C3.26068 20.8684 4.23001 20.8684 6.16866 20.8684H18.5062C20.4448 20.8684 21.4142 20.8684 22.0164 20.2661C22.6187 19.6639 22.6187 18.6945 22.6187 16.7559C22.6187 14.8172 22.6187 13.8479 22.0164 13.2456C21.4142 12.6434 20.4448 12.6434 18.5062 12.6434H18.3661L22.2599 5.82919C22.4712 5.45944 22.3428 4.98841 21.973 4.77712C21.6033 4.56584 21.1322 4.6943 20.9209 5.06405L16.8084 12.2609L16.5823 12.6434H8.10286L7.86642 12.2609L3.75391 5.06405ZM6.16866 17.784C6.73648 17.784 7.19679 17.3237 7.19679 16.7559C7.19679 16.1881 6.73648 15.7278 6.16866 15.7278C5.60084 15.7278 5.14053 16.1881 5.14053 16.7559C5.14053 17.3237 5.60084 17.784 6.16866 17.784ZM10.2812 16.7559C10.2812 17.3237 9.82086 17.784 9.25304 17.784C8.68522 17.784 8.22491 17.3237 8.22491 16.7559C8.22491 16.1881 8.68522 15.7278 9.25304 15.7278C9.82086 15.7278 10.2812 16.1881 10.2812 16.7559ZM14.3937 15.9848C13.9678 15.9848 13.6226 16.33 13.6226 16.7559C13.6226 17.1818 13.9678 17.527 14.3937 17.527H18.5062C18.932 17.527 19.2773 17.1818 19.2773 16.7559C19.2773 16.33 18.932 15.9848 18.5062 15.9848H14.3937Z" fill="#066651"/>
</g>
</g>
</svg>
