<svg width="24" height="24" viewBox="0 0 24 24" fill="none" xmlns="http://www.w3.org/2000/svg">
<g id="Camera_duotone_line">
<rect width="24" height="24" fill="#F8F8F8"/>
<path id="Rectangle 1" d="M3 9.8541C3 8.83011 3.83011 8 4.8541 8V8C5.55638 8 6.19839 7.60322 6.51246 6.97508L7.44721 5.10557C7.71617 4.56766 7.85065 4.2987 8.0923 4.14935C8.33395 4 8.63466 4 9.23607 4H14.7639C15.3653 4 15.666 4 15.9077 4.14935C16.1493 4.2987 16.2838 4.56766 16.5528 5.10557L17.4875 6.97508C17.8016 7.60322 18.4436 8 19.1459 8V8C20.1699 8 21 8.83011 21 9.8541V17C21 18.4142 21 19.1213 20.5607 19.5607C20.1213 20 19.4142 20 18 20H6C4.58579 20 3.87868 20 3.43934 19.5607C3 19.1213 3 18.4142 3 17V9.8541Z" stroke="#979797" stroke-width="1.5"/>
<circle id="Ellipse 55" cx="12" cy="13" r="3.25" stroke="#979797" stroke-width="1.5"/>
</g>
</svg>
