<svg width="25" height="25" viewBox="0 0 25 25" fill="none" xmlns="http://www.w3.org/2000/svg">
<g id="asicon/outline/notification">
<g id="vuesax/outline/notification">
<g id="notification">
<path id="Vector" d="M12.0444 20.4556C10.0056 20.4556 7.96686 20.1319 6.03311 19.4844C5.29811 19.2306 4.73811 18.7144 4.49311 18.0406C4.23936 17.3669 4.32686 16.6231 4.72936 15.9581L5.73561 14.2869C5.94561 13.9369 6.13811 13.2369 6.13811 12.8256V10.2969C6.13811 7.04188 8.78936 4.39062 12.0444 4.39062C15.2994 4.39062 17.9506 7.04188 17.9506 10.2969V12.8256C17.9506 13.2281 18.1431 13.9369 18.3531 14.2956L19.3506 15.9581C19.7269 16.5881 19.7969 17.3494 19.5431 18.0406C19.2894 18.7319 18.7381 19.2569 18.0469 19.4844C16.1219 20.1319 14.0831 20.4556 12.0444 20.4556ZM12.0444 5.70313C9.51561 5.70313 7.45061 7.75938 7.45061 10.2969V12.8256C7.45061 13.4644 7.18811 14.4094 6.86436 14.9606L5.85811 16.6319C5.66561 16.9556 5.61311 17.2969 5.72686 17.5856C5.83186 17.8831 6.09436 18.1106 6.45311 18.2331C10.1106 19.4581 13.9869 19.4581 17.6444 18.2331C17.9594 18.1281 18.2044 17.8919 18.3181 17.5769C18.4319 17.2619 18.4056 16.9206 18.2306 16.6319L17.2244 14.9606C16.8919 14.3919 16.6381 13.4556 16.6381 12.8169V10.2969C16.6381 7.75938 14.5819 5.70313 12.0444 5.70313Z" fill="white"/>
<path id="Vector_2" d="M13.674 5.95406C13.6127 5.95406 13.5515 5.94531 13.4902 5.92781C13.2365 5.85781 12.9915 5.80531 12.7552 5.77031C12.0115 5.67406 11.294 5.72656 10.6202 5.92781C10.3752 6.00656 10.1127 5.92781 9.94647 5.74406C9.78022 5.56031 9.72772 5.29781 9.82397 5.06156C10.1827 4.14281 11.0577 3.53906 12.0552 3.53906C13.0527 3.53906 13.9277 4.13406 14.2865 5.06156C14.374 5.29781 14.3302 5.56031 14.164 5.74406C14.0327 5.88406 13.849 5.95406 13.674 5.95406Z" fill="white"/>
<path id="Vector_3" d="M12.0475 22.4531C11.1812 22.4531 10.3412 22.1031 9.72873 21.4906C9.11623 20.8781 8.76624 20.0381 8.76624 19.1719H10.0787C10.0787 19.6881 10.2887 20.1956 10.6562 20.5631C11.0237 20.9306 11.5312 21.1406 12.0475 21.1406C13.1325 21.1406 14.0162 20.2569 14.0162 19.1719H15.3287C15.3287 20.9831 13.8587 22.4531 12.0475 22.4531Z" fill="white"/>
</g>
</g>
</g>
</svg>
