<svg width="20" height="20" viewBox="0 0 20 20" fill="none" xmlns="http://www.w3.org/2000/svg">
<g id="vuesax/twotone/star">
<g id="star">
<path id="Vector" d="M11.4417 2.9252L12.9083 5.85853C13.1083 6.26686 13.6417 6.65853 14.0917 6.73353L16.75 7.1752C18.45 7.45853 18.85 8.69186 17.625 9.90853L15.5583 11.9752C15.2083 12.3252 15.0167 13.0002 15.125 13.4835L15.7167 16.0419C16.1833 18.0669 15.1083 18.8502 13.3167 17.7919L10.825 16.3169C10.375 16.0502 9.63332 16.0502 9.17499 16.3169L6.68332 17.7919C4.89999 18.8502 3.81665 18.0585 4.28332 16.0419L4.87499 13.4835C4.98332 13.0002 4.79165 12.3252 4.44165 11.9752L2.37499 9.90853C1.15832 8.69186 1.54999 7.45853 3.24999 7.1752L5.90832 6.73353C6.34999 6.65853 6.88332 6.26686 7.08332 5.85853L8.54999 2.9252C9.34999 1.33353 10.65 1.33353 11.4417 2.9252Z" fill="#FFC900" stroke="#FFC900" strokeWidth="1.25" strokeLinecap="round" strokeLinejoin="round"/>
</g>
</g>
</svg>
